<svg xmlns="http://www.w3.org/2000/svg" width="116.571" height="103.821" viewBox="0 0 116.571 103.821"><g transform="translate(515.829 -128.241)"><rect width="14.571" height="47.357" transform="translate(-455.722 182.884)" fill="none" stroke="#dcdcdc" stroke-miterlimit="10" stroke-width="3.643"/><rect width="14.571" height="25.5" transform="translate(-479.401 204.741)" fill="none" stroke="#dcdcdc" stroke-miterlimit="10" stroke-width="3.643"/><rect width="14.571" height="14.571" transform="translate(-503.079 215.67)" fill="none" stroke="#dcdcdc" stroke-miterlimit="10" stroke-width="3.643"/><rect width="14.571" height="81.964" transform="translate(-432.044 148.277)" fill="#ffd494" stroke="#dcdcdc" stroke-miterlimit="10" stroke-width="3.643"/><line y2="10.929" transform="translate(-448.436 128.241)" fill="none" stroke="#dcdcdc" stroke-miterlimit="10" stroke-width="3.643"/><line x2="10.929" transform="translate(-453.901 133.705)" fill="none" stroke="#dcdcdc" stroke-miterlimit="10" stroke-width="3.643"/><line y2="10.929" transform="translate(-486.686 135.527)" fill="none" stroke="#dcdcdc" stroke-miterlimit="10" stroke-width="3.643"/><line x2="10.929" transform="translate(-492.151 140.991)" fill="none" stroke="#dcdcdc" stroke-miterlimit="10" stroke-width="3.643"/><line y2="10.929" transform="translate(-499.436 155.563)" fill="none" stroke="#dcdcdc" stroke-miterlimit="10" stroke-width="3.643"/><line x2="10.929" transform="translate(-504.901 161.027)" fill="none" stroke="#dcdcdc" stroke-miterlimit="10" stroke-width="3.643"/><line x2="3.643" transform="translate(-402.901 230.241)" fill="none" stroke="#dcdcdc" stroke-miterlimit="10" stroke-width="3.643"/><line x2="3.643" transform="translate(-515.829 230.241)" fill="none" stroke="#dcdcdc" stroke-miterlimit="10" stroke-width="3.643"/><line x1="102" transform="translate(-508.544 230.241)" fill="none" stroke="#dcdcdc" stroke-miterlimit="10" stroke-width="3.643"/><path d="M-450.258,148.305l-21.857-.028,5.464,5.464-35.8,36.429,10.3,10.3,36.429-37.625,5.464,5.464Z" fill="#ffd494" stroke="#dcdcdc" stroke-miterlimit="10" stroke-width="3.643"/></g></svg>