<svg xmlns="http://www.w3.org/2000/svg" width="123.984" height="115.415" viewBox="0 0 123.984 115.415"><g transform="translate(266.494 98.758)"><path d="M-204.51-53.369a10.064,10.064,0,0,0,10-10.2v-3.4a10.065,10.065,0,0,0-10-10.2,10.065,10.065,0,0,0-10,10.2v3.4A10.064,10.064,0,0,0-204.51-53.369Z" fill="none" stroke="#dcdcdc" stroke-miterlimit="10" stroke-width="4"/><path d="M-184.51-33.343v-12c0-2.931-11.008-8-19.992-8s-19.992,5.069-19.992,8v12" fill="none" stroke="#dcdcdc" stroke-linecap="round" stroke-linejoin="round" stroke-width="4"/><path d="M-204.51-5.369a10.064,10.064,0,0,0,10-10.2v-3.4a10.065,10.065,0,0,0-10-10.2,10.065,10.065,0,0,0-10,10.2v3.4A10.064,10.064,0,0,0-204.51-5.369Z" fill="none" stroke="#dcdcdc" stroke-miterlimit="10" stroke-width="4"/><path d="M-184.51,14.657v-12c0-2.931-11.008-8-19.992-8s-19.992,5.069-19.992,8v12" fill="none" stroke="#dcdcdc" stroke-linecap="round" stroke-linejoin="round" stroke-width="4"/><path d="M-244.51-29.369a10.064,10.064,0,0,0,10-10.2v-3.4a10.065,10.065,0,0,0-10-10.2,10.065,10.065,0,0,0-10,10.2v3.4A10.064,10.064,0,0,0-244.51-29.369Z" fill="none" stroke="#dcdcdc" stroke-miterlimit="10" stroke-width="4"/><path d="M-224.51-9.343v-12c0-2.931-11.008-8-19.992-8s-19.992,5.069-19.992,8v12" fill="none" stroke="#dcdcdc" stroke-linecap="round" stroke-linejoin="round" stroke-width="4"/><path d="M-164.51-29.343c-8.988,0-20,5.069-20,8v12c0,2.931,11.011,8,20,8s20-5.069,20-8v-12C-144.511-24.274-155.523-29.343-164.51-29.343Z" fill="#ffd494"/><path d="M-164.51-29.369a10.064,10.064,0,0,0,10-10.2v-3.4a10.065,10.065,0,0,0-10-10.2,10.065,10.065,0,0,0-10,10.2v3.4A10.064,10.064,0,0,0-164.51-29.369Z" fill="none" stroke="#dcdcdc" stroke-miterlimit="10" stroke-width="4"/><path d="M-144.51-9.343v-12c0-2.931-11.008-8-19.992-8s-19.992,5.069-19.992,8v12" fill="none" stroke="#dcdcdc" stroke-linecap="round" stroke-linejoin="round" stroke-width="4"/><line y2="4" transform="translate(-234.51 -75.343)" fill="none" stroke="#dcdcdc" stroke-miterlimit="10" stroke-width="4"/><line y2="4" transform="translate(-234.51 -67.343)" fill="none" stroke="#dcdcdc" stroke-miterlimit="10" stroke-width="4"/><line x1="4" transform="translate(-240.51 -69.343)" fill="none" stroke="#dcdcdc" stroke-miterlimit="10" stroke-width="4"/><line x1="4" transform="translate(-232.51 -69.343)" fill="none" stroke="#dcdcdc" stroke-miterlimit="10" stroke-width="4"/><line x1="4" y2="4" transform="translate(-230.51 -87.343)" fill="none" stroke="#dcdcdc" stroke-miterlimit="10" stroke-width="4"/><line x1="4" y2="4" transform="translate(-220.51 -97.343)" fill="none" stroke="#dcdcdc" stroke-miterlimit="10" stroke-width="4"/><line x2="4" y2="4" transform="translate(-220.51 -87.343)" fill="none" stroke="#dcdcdc" stroke-miterlimit="10" stroke-width="4"/><line x2="4" y2="4" transform="translate(-230.51 -97.343)" fill="none" stroke="#dcdcdc" stroke-miterlimit="10" stroke-width="4"/></g></svg>