<svg xmlns="http://www.w3.org/2000/svg" width="128" height="104" viewBox="0 0 128 104"><g transform="translate(376.123 -127.695)"><line y2="12" transform="translate(-324.123 127.695)" fill="none" stroke="#dcdcdc" stroke-miterlimit="10" stroke-width="4"/><line x2="12" transform="translate(-330.123 133.695)" fill="none" stroke="#dcdcdc" stroke-miterlimit="10" stroke-width="4"/><line y2="12" transform="translate(-366.123 151.695)" fill="none" stroke="#dcdcdc" stroke-miterlimit="10" stroke-width="4"/><line x2="12" transform="translate(-372.123 157.695)" fill="none" stroke="#dcdcdc" stroke-miterlimit="10" stroke-width="4"/><line y2="12" transform="translate(-264.123 161.695)" fill="none" stroke="#dcdcdc" stroke-miterlimit="10" stroke-width="4"/><line x2="12" transform="translate(-270.123 167.695)" fill="none" stroke="#dcdcdc" stroke-miterlimit="10" stroke-width="4"/><line x2="10" transform="translate(-266.123 229.695)" fill="none" stroke="#dcdcdc" stroke-miterlimit="10" stroke-width="4"/><line x2="4" transform="translate(-252.123 229.695)" fill="none" stroke="#dcdcdc" stroke-miterlimit="10" stroke-width="4"/><line x2="4" transform="translate(-376.123 229.695)" fill="none" stroke="#dcdcdc" stroke-miterlimit="10" stroke-width="4"/><rect width="22" height="52" transform="translate(-298.123 177.695)" fill="#fff" stroke="#dcdcdc" stroke-miterlimit="10" stroke-width="4"/><rect width="22" height="18" transform="translate(-358.123 211.695)" fill="none" stroke="#dcdcdc" stroke-miterlimit="10" stroke-width="4"/><rect width="22" height="30" transform="translate(-328.123 199.695)" fill="none" stroke="#dcdcdc" stroke-miterlimit="10" stroke-width="4"/><line x1="98" transform="translate(-368.123 229.695)" fill="none" stroke="#dcdcdc" stroke-miterlimit="10" stroke-width="4"/><path d="M-274.123,129.7h-22.9l5.657,5.657-29.561,29.561-15.556-15.556-32.527,32.527,11.271,11.357L-337.9,173.4l15.556,15.556,42.289-42.289,5.931,5.931Z" fill="#ffd494" stroke="#dcdcdc" stroke-miterlimit="10" stroke-width="4"/></g></svg>