<svg xmlns="http://www.w3.org/2000/svg" width="104.311" height="113.794" viewBox="0 0 104.311 113.794"><g transform="translate(-450.681 -118.078)"><path d="M488.613,159.8H454.475a1.9,1.9,0,0,1-1.9-1.9V121.872a1.9,1.9,0,0,1,1.9-1.9H549.3a1.9,1.9,0,0,1,1.9,1.9v36.035a1.9,1.9,0,0,1-1.9,1.9H513.268" fill="none" stroke="#dcdcdc" stroke-linecap="round" stroke-miterlimit="10" stroke-width="3.793"/><line x2="79.655" transform="translate(452.578 133.251)" fill="none" stroke="#dcdcdc" stroke-miterlimit="10" stroke-width="3.793"/><line x2="98.621" transform="translate(452.578 146.527)" fill="none" stroke="#dcdcdc" stroke-miterlimit="10" stroke-width="3.793"/><path d="M532.234,119.975v13.276h5.69v13.276" fill="none" stroke="#dcdcdc" stroke-miterlimit="10" stroke-width="3.793"/><line y2="13.276" transform="translate(465.854 119.975)" fill="none" stroke="#dcdcdc" stroke-miterlimit="10" stroke-width="3.793"/><line y2="13.276" transform="translate(479.13 119.975)" fill="none" stroke="#dcdcdc" stroke-miterlimit="10" stroke-width="3.793"/><line y2="13.276" transform="translate(492.406 119.975)" fill="none" stroke="#dcdcdc" stroke-miterlimit="10" stroke-width="3.793"/><line y2="13.276" transform="translate(505.682 119.975)" fill="none" stroke="#dcdcdc" stroke-miterlimit="10" stroke-width="3.793"/><line y2="13.276" transform="translate(518.958 119.975)" fill="none" stroke="#dcdcdc" stroke-miterlimit="10" stroke-width="3.793"/><line y2="13.276" transform="translate(471.544 133.251)" fill="none" stroke="#dcdcdc" stroke-miterlimit="10" stroke-width="3.793"/><line y2="13.276" transform="translate(484.82 133.251)" fill="none" stroke="#dcdcdc" stroke-miterlimit="10" stroke-width="3.793"/><line y2="13.276" transform="translate(498.096 133.251)" fill="none" stroke="#dcdcdc" stroke-miterlimit="10" stroke-width="3.793"/><line y2="13.276" transform="translate(511.372 133.251)" fill="none" stroke="#dcdcdc" stroke-miterlimit="10" stroke-width="3.793"/><line y2="13.276" transform="translate(524.647 133.251)" fill="none" stroke="#dcdcdc" stroke-miterlimit="10" stroke-width="3.793"/><line y2="13.276" transform="translate(473.441 146.527)" fill="none" stroke="#dcdcdc" stroke-miterlimit="10" stroke-width="3.793"/><line y2="13.276" transform="translate(530.337 146.527)" fill="none" stroke="#dcdcdc" stroke-miterlimit="10" stroke-width="3.793"/><line x1="3.793" y2="3.793" transform="translate(458.268 216.7)" fill="none" stroke="#dcdcdc" stroke-miterlimit="10" stroke-width="3.793"/><line x1="3.793" y2="3.793" transform="translate(467.751 207.217)" fill="none" stroke="#dcdcdc" stroke-miterlimit="10" stroke-width="3.793"/><line x2="3.793" y2="3.793" transform="translate(467.751 216.7)" fill="none" stroke="#dcdcdc" stroke-miterlimit="10" stroke-width="3.793"/><line x2="3.793" y2="3.793" transform="translate(458.268 207.217)" fill="none" stroke="#dcdcdc" stroke-miterlimit="10" stroke-width="3.793"/><line y2="3.793" transform="translate(469.647 169.286)" fill="none" stroke="#dcdcdc" stroke-miterlimit="10" stroke-width="3.793"/><line y2="3.793" transform="translate(469.647 176.872)" fill="none" stroke="#dcdcdc" stroke-miterlimit="10" stroke-width="3.793"/><line x1="3.793" transform="translate(463.958 174.975)" fill="none" stroke="#dcdcdc" stroke-miterlimit="10" stroke-width="3.793"/><line x1="3.793" transform="translate(471.544 174.975)" fill="none" stroke="#dcdcdc" stroke-miterlimit="10" stroke-width="3.793"/><line y2="3.793" transform="translate(549.303 171.182)" fill="none" stroke="#dcdcdc" stroke-miterlimit="10" stroke-width="3.793"/><line y2="3.793" transform="translate(549.303 178.769)" fill="none" stroke="#dcdcdc" stroke-miterlimit="10" stroke-width="3.793"/><line x1="3.793" transform="translate(543.613 176.872)" fill="none" stroke="#dcdcdc" stroke-miterlimit="10" stroke-width="3.793"/><line x1="3.793" transform="translate(551.199 176.872)" fill="none" stroke="#dcdcdc" stroke-miterlimit="10" stroke-width="3.793"/><path d="M505.682,171.182h3.793a5.114,5.114,0,0,1,3.793,1.9h3.793a3.983,3.983,0,0,1,3.793,3.793h3.793a3.984,3.984,0,0,1,3.794,3.793v20.862c0,3.838-3.794,6.928-3.794,9.483v5.69" fill="none" stroke="#dcdcdc" stroke-miterlimit="10" stroke-width="3.793"/><path d="M496.2,216.7v-7.587c0-1.622-5.373-6.286-6.7-8.359-.823-1.29-6.578-19.65-6.578-19.65,0-1.834,4.646-4.18,7.682,0l3.052,4.731a2.9,2.9,0,0,0,4.439.52h0V157.907a3.794,3.794,0,0,1,3.793-3.794h0a3.794,3.794,0,0,1,3.793,3.794v22.758" fill="none" stroke="#dcdcdc" stroke-linecap="round" stroke-miterlimit="10" stroke-width="3.793"/><line y2="7.586" transform="translate(513.268 173.079)" fill="none" stroke="#dcdcdc" stroke-linecap="round" stroke-miterlimit="10" stroke-width="3.793"/><line y2="5.69" transform="translate(520.854 176.872)" fill="none" stroke="#dcdcdc" stroke-linecap="round" stroke-miterlimit="10" stroke-width="3.793"/><rect width="36.034" height="15.172" transform="translate(492.406 214.803)" fill="#ffd494" stroke="#dcdcdc" stroke-linejoin="round" stroke-width="3.793"/><line x2="5.69" transform="translate(498.096 222.389)" fill="none" stroke="#dcdcdc" stroke-miterlimit="10" stroke-width="3.793"/></g></svg>