<svg xmlns="http://www.w3.org/2000/svg" width="136.758" height="105.423" viewBox="0 0 136.758 105.423"><g transform="translate(104.603 93.266)"><path d="M-3-68.455c-5.361,0-9-4.386-9-9.8v-3.217c0-5.411,3.639-9.8,9-9.8s9,4.386,9,9.8v3.217C6-72.841,2.359-68.455-3-68.455Z" fill="none" stroke="#dcdcdc" stroke-miterlimit="10" stroke-width="4"/><path d="M-28.749-45.843s2.3-4.8,3.312-6.8,4.429-9.2,11.435-9.2H6c6.214,0,12,6.2,12,14.4V-29.8a8.023,8.023,0,0,1-8.083,7.961H8" fill="none" stroke="#dcdcdc" stroke-miterlimit="10" stroke-width="4"/><path d="M-16,12.157V-44.154l-9.863,11.372" fill="none" stroke="#dcdcdc" stroke-miterlimit="10" stroke-width="4"/><line y2="60" transform="translate(7.998 -47.843)" fill="none" stroke="#dcdcdc" stroke-miterlimit="10" stroke-width="4"/><line y2="34" transform="translate(-4.002 -21.843)" fill="none" stroke="#dcdcdc" stroke-miterlimit="10" stroke-width="4"/><path d="M-62-68.455a10,10,0,0,0,10-9.8v-3.217a10,10,0,0,0-10-9.8,10,10,0,0,0-10,9.8v3.217A10,10,0,0,0-62-68.455Z" fill="none" stroke="#dcdcdc" stroke-miterlimit="10" stroke-width="4"/><path d="M-37.236-49.028C-40.169-53.01-44.526-61.843-54-61.843H-70c-6.214,0-14,5.674-14,14v16c0,4.464,5.536,10,10,10v34h24v-56L-36.4-30.326a5.7,5.7,0,0,0,8.069.005l2.461-2.462S-34.321-45.07-37.236-49.028Z" fill="#ffd494"/><path d="M-50,12.157v-56L-36.4-30.326a5.7,5.7,0,0,0,8.069.005l2.461-2.462S-34.321-45.07-37.236-49.028C-40.169-53.01-44.526-61.843-54-61.843H-70c-6.214,0-14,5.674-14,14v16c0,4.464,5.536,10,10,10" fill="none" stroke="#dcdcdc" stroke-miterlimit="10" stroke-width="4"/><line y2="60" transform="translate(-74.002 -47.843)" fill="none" stroke="#dcdcdc" stroke-miterlimit="10" stroke-width="4"/><line y2="34" transform="translate(-62.002 -21.843)" fill="none" stroke="#dcdcdc" stroke-miterlimit="10" stroke-width="4"/><line x1="4" y2="4" transform="translate(16.74 -70.89)" fill="none" stroke="#dcdcdc" stroke-miterlimit="10" stroke-width="4"/><line x1="4" y2="4" transform="translate(26.74 -80.89)" fill="none" stroke="#dcdcdc" stroke-miterlimit="10" stroke-width="4"/><line x2="4" y2="4" transform="translate(26.74 -70.89)" fill="none" stroke="#dcdcdc" stroke-miterlimit="10" stroke-width="4"/><line x2="4" y2="4" transform="translate(16.74 -80.89)" fill="none" stroke="#dcdcdc" stroke-miterlimit="10" stroke-width="4"/><line x1="6" transform="translate(-104.603 -66.298)" fill="none" stroke="#dcdcdc" stroke-miterlimit="10" stroke-width="4"/><line x1="6" transform="translate(-90.603 -66.298)" fill="none" stroke="#dcdcdc" stroke-miterlimit="10" stroke-width="4"/><line y2="6" transform="translate(-94.603 -62.298)" fill="none" stroke="#dcdcdc" stroke-miterlimit="10" stroke-width="4"/><line y2="6" transform="translate(-94.603 -76.298)" fill="none" stroke="#dcdcdc" stroke-miterlimit="10" stroke-width="4"/></g></svg>