<svg xmlns="http://www.w3.org/2000/svg" width="118" height="124.029" viewBox="0 0 118 124.029"><g transform="translate(105.123 115.569)"><line x1="6" transform="translate(-103.123 -35.569)" fill="none" stroke="#dcdcdc" stroke-miterlimit="10" stroke-width="4"/><line x1="6" transform="translate(-89.123 -35.569)" fill="none" stroke="#dcdcdc" stroke-miterlimit="10" stroke-width="4"/><line y2="6" transform="translate(-93.123 -31.569)" fill="none" stroke="#dcdcdc" stroke-miterlimit="10" stroke-width="4"/><line y2="6" transform="translate(-93.123 -45.569)" fill="none" stroke="#dcdcdc" stroke-miterlimit="10" stroke-width="4"/><line x1="4" y2="4" transform="translate(-95.123 -95.569)" fill="none" stroke="#dcdcdc" stroke-miterlimit="10" stroke-width="4"/><line x1="4" y2="4" transform="translate(-85.123 -105.569)" fill="none" stroke="#dcdcdc" stroke-miterlimit="10" stroke-width="4"/><line x2="4" y2="4" transform="translate(-85.123 -95.569)" fill="none" stroke="#dcdcdc" stroke-miterlimit="10" stroke-width="4"/><line x2="4" y2="4" transform="translate(-95.123 -105.569)" fill="none" stroke="#dcdcdc" stroke-miterlimit="10" stroke-width="4"/><line y2="4" transform="translate(6.877 -115.569)" fill="none" stroke="#dcdcdc" stroke-miterlimit="10" stroke-width="4"/><line y2="4" transform="translate(6.877 -107.569)" fill="none" stroke="#dcdcdc" stroke-miterlimit="10" stroke-width="4"/><line x1="4" transform="translate(0.877 -109.569)" fill="none" stroke="#dcdcdc" stroke-miterlimit="10" stroke-width="4"/><line x1="4" transform="translate(8.877 -109.569)" fill="none" stroke="#dcdcdc" stroke-miterlimit="10" stroke-width="4"/><path d="M-13.123-105.569v-6h-42v18" fill="none" stroke="#dcdcdc" stroke-miterlimit="10" stroke-width="4"/><path d="M-27.123-73.569v-14h-36v14" fill="none" stroke="#dcdcdc" stroke-miterlimit="10" stroke-width="4"/><path d="M-41.123-99.569v12h14v14h26v-26Z" fill="#ffd494" stroke="#dcdcdc" stroke-miterlimit="10" stroke-width="1"/><path d="M-1.123-73.569v-26h-40v12h14v14" fill="none" stroke="#dcdcdc" stroke-miterlimit="10" stroke-width="4"/><path d="M-73.123-67.569h78c2.11,0,4.17,2.294,3.511,4.3L-1.825-32.26a9.736,9.736,0,0,1-9.248,6.691h-52.05" fill="none" stroke="#dcdcdc" stroke-miterlimit="10" stroke-width="4"/><line y2="28" transform="translate(-51.123 -61.569)" fill="none" stroke="#dcdcdc" stroke-miterlimit="10" stroke-width="4"/><line y2="28" transform="translate(-35.123 -61.569)" fill="none" stroke="#dcdcdc" stroke-miterlimit="10" stroke-width="4"/><line y2="28" transform="translate(-19.123 -61.569)" fill="none" stroke="#dcdcdc" stroke-miterlimit="10" stroke-width="4"/><line x1="44" transform="translate(-57.123 -41.569)" fill="none" stroke="#dcdcdc" stroke-miterlimit="10" stroke-width="4"/><line x1="54" transform="translate(-63.123 -53.569)" fill="none" stroke="#dcdcdc" stroke-miterlimit="10" stroke-width="4"/><path d="M-7.123-11.569h-46a6.444,6.444,0,0,1-6-4c-1.326-2.856-17.8-40.995-23.816-54.939a8.383,8.383,0,0,0-7.7-5.061h-14.481" fill="none" stroke="#dcdcdc" stroke-miterlimit="10" stroke-width="4"/><circle cx="6.015" cy="6.015" r="6.015" transform="translate(-63.123 -5.569)" fill="none" stroke="#dcdcdc" stroke-miterlimit="10" stroke-width="4"/><path d="M-4.965.445A6.015,6.015,0,0,1-10.979,6.46,6.015,6.015,0,0,1-16.994.445a6.015,6.015,0,0,1,6.015-6.014A6.015,6.015,0,0,1-4.965.445Z" fill="none" stroke="#dcdcdc" stroke-miterlimit="10" stroke-width="4"/></g></svg>