<svg xmlns="http://www.w3.org/2000/svg" width="108" height="108" viewBox="0 0 108 108">
  <g id="グループ_672" data-name="グループ 672" transform="translate(-302 -3438)">
    <circle id="楕円形_1" data-name="楕円形 1" cx="54" cy="54" r="54" transform="translate(302 3438)" fill="#fff"/>
    <g id="グループ_534" data-name="グループ 534" transform="translate(-3219.823 1939.851)">
      <g id="グループ_533" data-name="グループ 533" transform="translate(3539.823 1525.149)">
        <g id="グループ_530" data-name="グループ 530" transform="translate(26.989 16.085)">
          <g id="グループ_529" data-name="グループ 529" transform="translate(9.292 9.596)">
            <line id="線_8" data-name="線 8" x2="16.417" transform="translate(7.965)" fill="none" stroke="#2e2d2c" stroke-linecap="round" stroke-linejoin="round" stroke-width="4"/>
            <line id="線_9" data-name="線 9" x2="24.382" transform="translate(0 6.49)" fill="none" stroke="#2e2d2c" stroke-linecap="round" stroke-linejoin="round" stroke-width="4"/>
            <line id="線_10" data-name="線 10" x2="23.339" transform="translate(1.044 12.98)" fill="none" stroke="#2e2d2c" stroke-linecap="round" stroke-linejoin="round" stroke-width="4"/>
          </g>
          <path id="パス_3908" data-name="パス 3908" d="M3648.888,1579.492h22.52a3.615,3.615,0,0,1,3.6,3.6v24.963a3.615,3.615,0,0,1-3.6,3.6h-7.084v9.513a1.4,1.4,0,0,1-2.384.987l-9.261-10.5h-18.073a3.615,3.615,0,0,1-3.6-3.6v-11.9" transform="translate(-3631.002 -1579.492)" fill="none" stroke="#2e2d2c" stroke-linecap="round" stroke-linejoin="round" stroke-width="4"/>
        </g>
        <g id="グループ_532" data-name="グループ 532">
          <path id="パス_3909" data-name="パス 3909" d="M3580.229,1525.149h-36.8a3.615,3.615,0,0,0-3.6,3.6v24.963a3.615,3.615,0,0,0,3.6,3.6h7.083v9.512a1.4,1.4,0,0,0,2.384.987l9.261-10.5h18.073a3.615,3.615,0,0,0,3.6-3.6v-24.963A3.615,3.615,0,0,0,3580.229,1525.149Z" transform="translate(-3539.823 -1525.149)" fill="none" stroke="#2e2d2c" stroke-linecap="round" stroke-linejoin="round" stroke-width="4"/>
          <g id="グループ_531" data-name="グループ 531" transform="translate(10.336 9.596)">
            <line id="線_11" data-name="線 11" x1="23.339" fill="none" stroke="#2e2d2c" stroke-linecap="round" stroke-linejoin="round" stroke-width="4"/>
            <line id="線_12" data-name="線 12" x1="23.339" transform="translate(0 6.49)" fill="none" stroke="#2e2d2c" stroke-linecap="round" stroke-linejoin="round" stroke-width="4"/>
            <line id="線_13" data-name="線 13" x1="23.339" transform="translate(0 12.98)" fill="none" stroke="#2e2d2c" stroke-linecap="round" stroke-linejoin="round" stroke-width="4"/>
          </g>
        </g>
      </g>
    </g>
  </g>
</svg>
