<svg xmlns="http://www.w3.org/2000/svg" width="470.005" height="258.512" viewBox="0 0 470.005 258.512">
  <g id="グループ_714" data-name="グループ 714" transform="translate(-86.518 -113.862)">
    <path id="パス_5516" data-name="パス 5516" d="M114.625,372.374s-74.782-99.153,19.613-202.69c36.59-40.134,91.808-58.959,143.632-55.4,64.844,4.457,109.352,39.3,124.55,62.672,0,0,80.708-30.213,91.107-4.075,7.487,18.815-38.9,44.669-79.054,53.913-21.3,4.9-97.357,26.394-97.357,26.394H540.727l-5.021,24.525s-8.167-1.058-9.675,5.443l-7.113,31.611c-1.059,4.084,3.176,5.294,6.05,4.235a40.532,40.532,0,0,0,9.83-5.9l21.725,5.91c0,9.869-15.742,43.5-15.742,43.5h-328.8l10.945-26.732s11.127-.724,15.791-6.423S275.5,264.442,275.5,264.442L163.274,291.61,300.62,219.07s-26.155-36.373-96.1-24.429C133.389,206.788,89.831,290.2,114.625,372.374Z" fill="#191919"/>
    <g id="グループ_713" data-name="グループ 713">
      <g id="グループ_712" data-name="グループ 712">
        <path id="パス_5517" data-name="パス 5517" d="M324.423,351.233H285.966l1.2-4.671c9.349-.935,9.615-2.671,8.814-8.948-.669-4.539-1.47-9.481-2.271-14.821H268.474c-2.536,4.673-5.74,9.881-8.011,14.687-2.805,5.876-2.537,7.879,8.812,9.082l-1.067,4.671H235.361l1.2-4.671c10.013-1.338,11.349-2.273,18.96-15.223l38.856-67.165,6.412-.935c5.34,32.984,9.212,53.545,12.015,70.1,1.736,10.55,2.537,12.018,12.953,13.221Zm-36.186-64.76h-.266c-5.208,9.882-11.085,20.163-16.159,29.642h20.964Z" fill="#fff"/>
        <path id="パス_5518" data-name="パス 5518" d="M407.373,269.255c-8.815.935-11.083,2.139-17.492,8.68-4.676,4.808-11.752,13.219-20.3,23.633l14.289,32.716c4.4,10.282,5.874,11.351,15.756,12.286l-1.336,4.671H358.5l1.2-4.671,3.071-.537c5.074-.8,5.609-2.134,4.007-6.541-1.335-3.873-2.939-8.146-9.615-24.3-7.877,10.016-13.886,17.358-17.758,23.5-3.072,4.8-2.137,6.409,3.2,7.21l4.674.669-1.336,4.671H312.165l1.2-4.671c8.277-1.069,10.814-2.4,15.488-6.944,4.541-4.541,16.024-18.3,25.505-30.445L341.809,278.87c-3.071-7.212-5.208-8.814-14.154-9.615l1.2-4.8h38.055l-1.2,4.8-4.139.669c-3.338.535-4.007,1.734-3.338,4.139,1.868,4.807,4.674,12.686,8.812,21.63,5.609-6.944,11.752-14.686,15.356-20.16,2.4-3.741,1.6-5.074-3.472-5.743l-3.338-.535,1.067-4.8H408.44Z" fill="#fff"/>
        <path id="パス_5519" data-name="パス 5519" d="M458.213,264.442c6.942,0,13.486,0,18.56-.134-.936,4.8-2.4,15.756-3.472,21.364l-5.074.4c-.535-12.018-2.137-15.756-11.083-15.756h-9.212c-5.074,0-7.079.8-8.146,5.874l-5.074,26.973h10.414c11.217,0,11.618-1.6,15.49-10.816h5.074l-5.474,28.174h-5.074c.266-10.282.134-11.349-10.951-11.349H433.243L428.7,333.609c-1.871,9.481-.8,11.75,7.342,11.75h7.478c7.611,0,10.548-1.07,13.886-4.005a48.67,48.67,0,0,0,10.15-13.221l4.808,1.87c-1.6,4.94-6.009,16.559-8.146,21.23H395.587l1.07-4.671c10.682-.8,12.284-1.87,14.286-12.286l10.416-52.742c2-10.551.935-11.351-9.747-12.287l1.336-4.805Z" fill="#fff"/>
        <path id="パス_5520" data-name="パス 5520" d="M542.025,328.267c-1.467,5.074-6.675,18.427-9.212,22.966H463.748l2.127-4.852c10.282-.8,13.126-1.823,15.129-12.239L491.42,280.6c1.87-9.481.666-10.551-9.747-11.352l1.2-4.805h40.859l-.936,4.805c-10.948.669-12.015,2.005-13.751,11.486l-10.282,52.342c-1.87,10.149-1.069,12.284,6.676,12.284h6.809c5.743,0,10.016-.667,14.289-4.539a68.81,68.81,0,0,0,10.682-14.289Z" fill="#fff"/>
      </g>
      <path id="パス_5521" data-name="パス 5521" d="M409.974,187.915c10.7-3.91,16.085-6.268,34.855-10.061,23.573-4.765,35.858,4.253,11.448,18.456a147.6,147.6,0,0,1-30.786,14.162c-8.3,2.63-196.564,56.086-196.564,56.086S401.988,190.833,409.974,187.915Z" fill="#fff"/>
      <path id="パス_5522" data-name="パス 5522" d="M380.592,182.493c-36.822-47.189-110.225-65.906-174.723-43.21a164.279,164.279,0,0,0-100.432,209.5c.293.831.63,1.632.934,2.455-22.643-68.581,13.12-144.55,82.09-167.042,49.874-16.265,95.938-9.355,130.988,24.683Z" fill="#fff"/>
    </g>
  </g>
</svg>
