<svg xmlns="http://www.w3.org/2000/svg" width="244.186" height="70.343" viewBox="0 0 244.186 70.343">
  <g id="グループ_591" data-name="グループ 591" transform="translate(-11.339 -8.504)">
    <path id="パス_5314" data-name="パス 5314" d="M32.495,49.294C37.1,46.576,42,42.006,42,34.653c0-8.08-5.96-15.763-14.167-19.3a18.709,18.709,0,0,1,.192-2.163,1.013,1.013,0,0,0,.145-.462c.044-.607-1.423-3.05-3.192-3.05-.4,0-1.391.6-1.391.995,0,.464.066,1.59.066,3.312v.1a20.43,20.43,0,0,0-5.035-.695c-1.92,0-3.576.4-4.5,2.054-1.059,1.855-2.78,2.981-2.78,5.5,0,5.761,10.464,22.52,12.118,33.1.064,1.238.126,2.43.12,3.521a14.085,14.085,0,0,1-4.821-2.713c-.133-.329-.33-.462-.529-.462-.529,0-1.325,1.126-1.325,2.317a4.1,4.1,0,0,0,.927,2.187c.934,1.315,2.989,2.44,5.667,3.079a6.847,6.847,0,0,1-.3,2.42,1.436,1.436,0,0,0-.079.438c-.015.8,2.062,2.607,3.391,2.607.332,0,1.458-.33,1.458-.993a31.8,31.8,0,0,1-.218-3.919c.266.008.536.012.813.012,8.81,0,13.909-3.445,13.909-7.353C42.468,50.816,35.911,49.358,32.495,49.294Zm-9.1-10.069v5.389c0,.214-.034.361-.111.361-.037,0-.076-.061-.1-.2-1.7-7.6-8.2-22.707-8.2-25.548,0-1.258,1.192-1.457,2.583-1.457a21.352,21.352,0,0,1,6.055.941C23.545,23.646,23.393,29.654,23.393,39.224Zm4.173-.464c0-8.633.022-14.167.116-18.574,6.706,3.738,10.15,10.3,10.15,15.661,0,8.611-8.677,13.18-10.218,13.944C27.585,45.315,27.566,40.735,27.566,38.761Zm4.37,20.468a23.066,23.066,0,0,1-4.239-.423c-.024-2.035-.046-4.362-.062-6.714a15.941,15.941,0,0,1,2.184-.148c4.239,0,8.08,1.656,8.08,4.239C37.9,58.3,34.653,59.228,31.937,59.228Z" transform="translate(0 0.808)" fill="#fff"/>
    <path id="パス_5315" data-name="パス 5315" d="M91.014,44.935a.523.523,0,0,0-.529.33c-.862,4.505-2.915,10.466-4.04,10.466-.862,0-1.922-3.51-1.922-8.876,0-2.615.035-7.356.094-9.882a34.013,34.013,0,0,1,3.748-.649c.4-.066.529-.4.529-.794,0-1.192-1.126-3.18-1.986-3.18a11.92,11.92,0,0,0-2.163.223c-.044-4.409.03-9.476.175-9.761a1.752,1.752,0,0,0,.2-.794c0-1.391-2.253-3.312-3.445-3.312-.464,0-.927.6-.927,1.192,0,.406.192,1.544.18,2.61-.039,3.295,0,6.874-.12,10.911-.317.1-1.953.612-2.379.786-.393.16-.663.33-.663.663A3.5,3.5,0,0,0,80.622,37.7c-.2,2.524-.86,6.24-1.332,8.694a2.052,2.052,0,0,0-.066.529,2.031,2.031,0,0,0,.044.275c-1.61,6.058-4.544,9.193-5.982,9.172-1.4.025-1.995-2.89-2.246-4.881,4.488-.194,6.146-8.473,6.146-13.175,0-3.246-.8-6.559-3.789-6.687a1.027,1.027,0,0,1-.671-.25,2.931,2.931,0,0,0-1.7-.681c-2.6,0-3.978,8.427-3.978,15.328,0,1.251.051,2.474.152,3.617-1.494,4.885-3.48,7.808-4.247,7.793-.868.02-1.927-3.755-2.344-7.038C64,45.2,66.191,31.489,66.191,22.348c0-3.576-.529-7.218-2.593-8.146-.722-.325-1.249-1.26-2.175-1.26-3.677,0-5.111,14.136-5.111,26.266,0,2.679.049,5.8.317,8.771-1.512,5.881-3.866,9.469-4.716,9.452-.868.02-1.927-3.755-2.345-7.038,3.4-5.195,5.584-18.906,5.584-28.047,0-3.576-.531-7.218-2.593-8.146-.722-.325-1.249-1.26-2.177-1.26-3.677,0-5.109,14.136-5.109,26.266,0,2.145.032,4.573.182,6.98-.831,3.834-2.468,8.3-3.072,8.3-.352,0-.489-1.9-.489-5.148,0-4.881.263-13.821.607-15.538a1.349,1.349,0,0,0,.013-.184c0-1.19-1.592-2.465-2.728-2.465-.486,0-1.57.449-1.57,1.064,0,.376.1,1.136.1,2.366,0,9.672-2.178,20.658-3.551,20.67-.624.005-.872-3.8-.872-8.26,0-5.134.2-12.723.656-14.78a.751.751,0,0,0,.094-.363,3.151,3.151,0,0,0-2.742-2.485c-.523,0-1.792.676-1.792,1.249,0,.4.116,1.249.116,2.131,0,3.634-.179,11.725-.179,17.021a11.353,11.353,0,0,0,1.733,6.519c.846,1.689,1.745,2.742,2.939,2.742,1.76,0,2.9-3.352,3.539-6.933.015-.094.057-.153.1-.153s.074.047.089.155a9.711,9.711,0,0,0,1.2,3.489c1.271,2.322,2.288,2.556,2.74,2.556,1.553,0,2.942-2.423,3.951-5.161.712,3.092,1.888,5.49,3.843,6.193a8.726,8.726,0,0,0,2.384.794c2.163,0,3.875-2.731,5.089-5.888.73,2.554,1.85,4.477,3.568,5.094a8.706,8.706,0,0,0,2.384.794c1.963,0,3.553-2.249,4.74-5.023a5.783,5.783,0,0,0,2.421,3.027c1.278.744,1.912,1.334,3.237,1.334,3.14,0,5.461-4.053,6.822-7.969a12.9,12.9,0,0,0,.838,3.072,6.161,6.161,0,0,0,2.327,2.91c.993.7,1.789,1.789,2.915,1.789,3.377,0,5.895-11.063,5.895-12.718A1.8,1.8,0,0,0,91.014,44.935Zm-41.89-3.379c0-10.464,1.258-25.1,2.583-25.1.265,0,.6.531.6,5.7,0,8.545-1.722,20.8-3.011,25.145C49.19,45.6,49.124,43.61,49.124,41.556Zm11.039,0c0-10.464,1.26-25.1,2.583-25.1.265,0,.6.531.6,5.7,0,8.545-1.723,20.8-3.013,25.145C60.229,45.6,60.163,43.61,60.163,41.556Zm12.927-7.783c.452-.032.717,2.551.695,4.458.022,4.451-1.1,9.287-2.89,11.661C70.939,41.914,72.224,33.773,73.091,33.773Z" transform="translate(12.838 3.046)" fill="#fff"/>
    <path id="パス_5316" data-name="パス 5316" d="M81.9,35.3h0Z" transform="translate(48.413 18.382)" fill="#fff"/>
    <path id="パス_5317" data-name="パス 5317" d="M147.365,34.526h0a6.618,6.618,0,0,0-1.922-.8c-.6-.2-1.192-.728-1.855-.728-1.561,0-2.666,5.675-3.539,12.123-.037.2-.093.285-.145.285s-.1-.049-.093-.244c.191-6.154.533-12.835.73-14.018a1.743,1.743,0,0,0,.029-.31,3.5,3.5,0,0,0-2.877-3c-.86,0-1.523.529-1.523.927,0,.6.132,1.26.132,3.047,0,3.657-.1,10.494-.182,17-.836,3.811-2.45,8.193-3.047,8.193-.354,0-.491-1.9-.491-5.148,0-4.881.263-13.821.607-15.538a1.128,1.128,0,0,0,.015-.184c0-1.19-1.593-2.465-2.73-2.465-.486,0-1.568.449-1.568,1.064,0,.376.1,1.136.1,2.366,0,9.672-2.178,20.658-3.551,20.67-.624.005-.87-3.8-.87-8.26,0-5.134.2-12.723.656-14.78a.751.751,0,0,0,.094-.363,3.151,3.151,0,0,0-2.743-2.485c-.523,0-1.791.676-1.791,1.249,0,.4.116,1.249.116,2.131,0,2.313-.073,6.431-.126,10.486A14.492,14.492,0,0,1,118.1,47.62c.022-.607.032-1.214.032-1.816,0-4.271-.545-8.23-1.617-10.086a4.222,4.222,0,0,0-2.885-2.119c-.6-.133-1.273-.8-2.266-.8-3.107,0-5.473,6.2-5.473,12.541a9.886,9.886,0,0,0,.555,3.458c-.919,4.456-3.345,9.822-4.333,9.822-.5,0-.634-1.049-.634-2.9a63.51,63.51,0,0,1,2.452-16.956,1.4,1.4,0,0,0,.057-.423,2.19,2.19,0,0,0-1.05-1.9c-1.2-.917-1.26-2.452-3.047-2.452a16.979,16.979,0,0,0-3.279.826,27.214,27.214,0,0,0-.3-3.74,3.051,3.051,0,0,0-2.649-2.119c-.9,0-1.585,2.45-1.585,3.472a11.106,11.106,0,0,0,1.737,5.726c-.056,5.512-1.158,12.479-2.421,15.878a2.908,2.908,0,0,0-2.3-.9c-.993,0-1.523.266-1.539.929a1.1,1.1,0,0,0,.083.4c.061.538.192,3.4.2,4.569a25.647,25.647,0,0,1-5.23.663c-4.836,0-6.955-2.649-6.955-10.6,0-14.175,6.689-31.2,10.6-31.2a1.114,1.114,0,0,1,.528.116c-.012,2.819-.064,6.552-.064,11.342,0,1.389-.2,11.59-.2,13.379,0,.862.927,2.45,2.119,2.45.794,0,1.92-.45,1.92-1.126a7.089,7.089,0,0,0-.1-.841c-.083-1.1-.132-2.979-.132-5.251,0-4.77,1.091-11.125,1.091-14.109a10.5,10.5,0,0,0-1.035-4.242c.049-2.924.147-6.036.174-7.018.007-.239.243-.536.244-.772.007-1.165-1.661-2.539-2.828-2.539-.4,0-1.324.4-1.324.86,0,.733.062,3.709.1,4.993a4.1,4.1,0,0,0-2.155-.686c-7.286,0-13.18,18.412-13.18,32.587,0,4.505.6,8.81,3.069,11.528,3.126,3.433,5.272,5.3,8.125,5.3a9.589,9.589,0,0,0,5.232-1.639c0,.745.066,1.425.066,2.7,0,5.365-.6,7.486-2.384,7.486-2.054,0-6.625-2.651-8.941-5.831-.2-.4-.4-.464-.6-.464-.993,0-1.789,1.922-1.789,2.981a4.9,4.9,0,0,0,1.26,3.18A12.864,12.864,0,0,0,83.6,75.46c2.848,0,3.974-1.26,5.5-2.119,2.384-1.325,2.649-4.042,2.716-7.222V59.828c.015-.049.022-.106.037-.157a24.053,24.053,0,0,0,1.57-1.905c1.855-2.942,2.915-13.877,3.086-19.429a19.377,19.377,0,0,1,3.04-.3,72.133,72.133,0,0,0-1.974,14.73c0,2.957.413,5.438,1.533,6.652,1.826,1.978,2.642,2.592,3.7,2.592,1.521,0,3.04-2.536,4.182-5.439a7.829,7.829,0,0,0,.575,1.4,5.043,5.043,0,0,0,3.5,2.914,7.189,7.189,0,0,0,2.13.6c2.477,0,4.008-4.606,4.628-10.005a18,18,0,0,0,2.936-1.538c-.007.818-.01,1.605-.01,2.337a11.366,11.366,0,0,0,1.733,6.519c.848,1.689,1.745,2.742,2.941,2.742,1.759,0,2.9-3.352,3.537-6.933.015-.094.059-.153.1-.153s.076.047.089.155a9.71,9.71,0,0,0,1.2,3.489c1.271,2.322,2.286,2.556,2.74,2.556,1.094,0,2.1-1.212,2.961-2.883q0,.8,0,1.531c0,3.539,0,11.732-.147,14.949-.013.285-.123,1.2-.123,1.745,0,.927,1.588,2.315,2.787,2.315,1.224,0,1.8-.808,1.787-1.295a.855.855,0,0,0-.066-.3,49,49,0,0,1-.2-5.949c-.015-3.008,0-6.6,0-9.405a3.911,3.911,0,0,0,2.253.717c4.5,0,7.286-8.677,7.286-18.945C149.618,37.838,148.89,35.718,147.365,34.526Zm-36.007,24.44h0c-.583,0-1.221-4.067-1.251-6.675a9.307,9.307,0,0,0,2.787.383,7.491,7.491,0,0,0,.781-.044C113.041,56.869,111.908,58.966,111.359,58.966Zm2.664-9.621a14.643,14.643,0,0,1-3.817.678l-.03-.047c.157-2.254.561-3.767.946-4.058a.555.555,0,0,0,.256-.464,2.474,2.474,0,0,0-1.826-1.937c.641-3.978,2.268-8,3.057-8,.927,0,1.524,5.3,1.524,10.4C114.132,47.148,114.092,48.29,114.023,49.345ZM140.08,59.907V58.044c.836-8.3,3.446-22.26,4.768-22.26.663,0,.8,3.312.8,4.77C145.644,45.408,144.165,58.948,140.08,59.907Z" transform="translate(41.217 0.539)" fill="#fff"/>
    <path id="パス_5318" data-name="パス 5318" d="M141.955,39.184h0Z" transform="translate(89.616 21.05)" fill="#fff"/>
    <path id="パス_5319" data-name="パス 5319" d="M173.637,45.728c-.4,0-.706.125-.794.728-1.391,9.538-5.7,13.646-7.7,13.619-1.612-.02-2.295-4.176-2.295-9.056,0-6.083.929-13.624,2.841-15.293-.034,1.642-.216,5.723-.275,7.335-.057,1.6-.189,3.008-.189,3.728,0,1.231,1.855,2.517,2.386,2.517.86,0,1.389-.531,1.389-.995,0-.939-.066-1.523-.066-3.445,0-4.37.2-10.862.4-11.656a2.95,2.95,0,0,0,.132-.663c0-1.192-1.656-2.384-2.583-2.384-.4,0-1.457.464-1.457,1.125,0,.266.265,1.988.265,2.981a3.926,3.926,0,0,0-2.384-1.192c-2.866,0-4.542,9.242-4.542,16.666,0,.646.01,1.285.034,1.912-.86,2.929-2.022,5.662-2.651,5.655-.472.01-.737-1.58-.737-5.09a102.9,102.9,0,0,1,.878-12.514c.057-.28.322-.674.322-.912,0-1.209-2.136-3.332-3.519-3.332-.794,0-1.607.529-1.656,1.192A150.359,150.359,0,0,1,148,54.464c-.042.167-.1.231-.14.231s-.067-.052-.067-.125c.008-3.563.135-11.076.162-13.794a53.874,53.874,0,0,1,.234-6.175.558.558,0,0,0,.034-.211c0-.8-1.4-1.976-2.617-1.976-.663,0-1.789.2-1.789.862,0,.4.2,1.656.2,3.246,0,3.775-.066,12.651-.066,17.487,0,.963.007,1.85.015,2.671l-1.737.177c-.779,0-2.617.072-4,.194q-.094-19.639-.1-24.1c0-4.467.019-9.951.1-14.259.912-.032,2.433-.047,3.21-.047,1.391,0,2.517.066,3.246.132.531.049.728-.265.728-.728,0-1.325-1.656-3.908-3.775-3.908-.819,0-2.362.03-3.279.088a8.813,8.813,0,0,1,.167-2.008.853.853,0,0,0,.126-.437c.029-1.271-2.2-3.273-3.173-3.273-.663,0-1.391.6-1.391.995,0,.462.132,1.588.132,2.979,0,.754-.007,1.012-.017,1.944a45.887,45.887,0,0,0-8.791,1.634c-1.061.329-2.981.993-3.51,2.848a25.448,25.448,0,0,0-1.192,4.768,3.594,3.594,0,0,0,.728,2.185c3.564,4.9,11.737,15.188,12.518,25.411,0,2.163.074,4.583.074,6.24-3.595.443-7.011,1.037-8.751,1.4a.644.644,0,0,0-.206-.029c-.352.008-.588.341-.588.956,0,1.192,1.457,2.848,2.531,2.824a3.835,3.835,0,0,0,1.045-.374c1.491-.191,3.237-.472,5.881-.75a11.656,11.656,0,0,1-.185,2.34,1.437,1.437,0,0,0-.079.46c.01,1.448,2.533,2.32,3.854,2.32.529,0,.862-.133.862-.4,0-.423-.079-2.273-.116-5.127,1.748-.142,4.23-.266,6.271-.357a4.047,4.047,0,0,0,2.588,1.312c.464,0,.73-.2.8-.794,1.16-3.876,2.222-9.073,3.349-13.663.057-.229.147-.346.218-.347s.108.079.11.241c0,.034,0,.071-.005.108-.106,1.1-.18,2.286-.18,3.463,0,2.883.447,5.713,1.966,7.051,1.14,1,1.875,2.086,3.155,2.086,1.2,0,2.276-1.251,3.15-2.951a7.136,7.136,0,0,0,3.355,4.276,7,7,0,0,0,3.377,1.325c5.234,0,8.611-11.327,8.611-14.9C175.028,47.054,174.366,45.728,173.637,45.728Zm-39.689-12.32V42c-2.856-8.41-10.182-19-10.182-20.586,0-1.189,4.295-2.136,10.365-2.514C134.053,23.4,133.948,28.7,133.948,33.408Z" transform="translate(75.035)" fill="#fff"/>
    <path id="パス_5320" data-name="パス 5320" d="M155.932,37.117a1.9,1.9,0,0,0-.6-.133c-1.325,0-2.318,1.723-2.318,3.379a2.241,2.241,0,0,0,2.318,2.517,2.843,2.843,0,0,0,2.981-2.981C158.317,38.375,157.456,36.984,155.932,37.117Z" transform="translate(97.207 19.54)" fill="#fff"/>
  </g>
</svg>
