<svg xmlns="http://www.w3.org/2000/svg" xmlns:xlink="http://www.w3.org/1999/xlink" width="586.724" height="643.805" viewBox="0 0 586.724 643.805">
  <defs>
    <radialGradient id="radial-gradient" cx="0.5" cy="0.5" r="0.874" gradientTransform="translate(0.211 55.95) scale(0.577 0.517)" gradientUnits="objectBoundingBox">
      <stop offset="0.091" stop-color="#48486a"/>
      <stop offset="0.118" stop-color="#4f4f70"/>
      <stop offset="0.351" stop-color="#8d8da2"/>
      <stop offset="0.564" stop-color="#bebeca"/>
      <stop offset="0.75" stop-color="#e1e1e7"/>
      <stop offset="0.901" stop-color="#f7f7f8"/>
      <stop offset="1" stop-color="#fff"/>
    </radialGradient>
    <linearGradient id="linear-gradient" y1="0.5" x2="1" y2="0.5" gradientUnits="objectBoundingBox">
      <stop offset="0.004" stop-color="#a5cbef"/>
      <stop offset="0.442" stop-color="#cee2f6"/>
      <stop offset="1" stop-color="#fff"/>
    </linearGradient>
    <linearGradient id="linear-gradient-2" x1="0.665" y1="-0.202" x2="0.326" y2="0.744" gradientUnits="objectBoundingBox">
      <stop offset="0" stop-color="#3c5185"/>
      <stop offset="1" stop-color="#7ea7df"/>
    </linearGradient>
    <linearGradient id="linear-gradient-3" x1="0.345" y1="0.637" x2="0.674" y2="0.346" gradientUnits="objectBoundingBox">
      <stop offset="0" stop-color="#7ea7df"/>
      <stop offset="1" stop-color="#3c5185"/>
    </linearGradient>
    <linearGradient id="linear-gradient-4" x1="0" y1="0.5" x2="1" y2="0.5" xlink:href="#linear-gradient-3"/>
    <linearGradient id="linear-gradient-5" y1="0.5" x2="1" y2="0.5" gradientUnits="objectBoundingBox">
      <stop offset="0.15" stop-color="#ff9800"/>
      <stop offset="1" stop-color="#ffc107"/>
    </linearGradient>
    <linearGradient id="linear-gradient-6" y1="0.5" x2="1" y2="0.5" gradientUnits="objectBoundingBox">
      <stop offset="0" stop-color="#5d7dbe"/>
      <stop offset="0.305" stop-color="#5572b0"/>
      <stop offset="0.872" stop-color="#41578d"/>
      <stop offset="1" stop-color="#3c5185"/>
    </linearGradient>
    <linearGradient id="linear-gradient-9" y1="0.5" x2="1" y2="0.5" gradientUnits="objectBoundingBox">
      <stop offset="0" stop-color="#d3daed"/>
      <stop offset="1" stop-color="#99a7d8"/>
    </linearGradient>
    <radialGradient id="radial-gradient-2" cx="0.5" cy="0.5" r="0.875" gradientTransform="translate(0.211 399.844) scale(0.577 0.517)" gradientUnits="objectBoundingBox">
      <stop offset="0.091" stop-color="#3c5185"/>
      <stop offset="0.254" stop-color="#6f7ea5"/>
      <stop offset="0.437" stop-color="#a2acc4"/>
      <stop offset="0.609" stop-color="#cad0de"/>
      <stop offset="0.765" stop-color="#e7e9f0"/>
      <stop offset="0.901" stop-color="#f8f9fb"/>
      <stop offset="1" stop-color="#fff"/>
    </radialGradient>
    <linearGradient id="linear-gradient-10" y1="0.5" x2="1" y2="0.5" gradientUnits="objectBoundingBox">
      <stop offset="0" stop-color="#3c5185"/>
      <stop offset="0.128" stop-color="#41578d"/>
      <stop offset="0.695" stop-color="#5572b0"/>
      <stop offset="1" stop-color="#5d7dbe"/>
    </linearGradient>
    <radialGradient id="radial-gradient-3" cx="0.5" cy="0.5" r="0.875" gradientTransform="translate(0.211 370.316) scale(0.577 0.517)" xlink:href="#radial-gradient-2"/>
    <linearGradient id="linear-gradient-11" y1="0.5" x2="1" y2="0.5" gradientUnits="objectBoundingBox">
      <stop offset="0" stop-color="#ffc107"/>
      <stop offset="0.85" stop-color="#ff9800"/>
    </linearGradient>
    <linearGradient id="linear-gradient-12" x1="0.001" y1="0.5" x2="0.999" y2="0.5" xlink:href="#linear-gradient-5"/>
    <radialGradient id="radial-gradient-4" cx="0.5" cy="0.5" r="0.875" gradientTransform="translate(0.211 359.813) scale(0.577 0.517)" xlink:href="#radial-gradient-2"/>
    <radialGradient id="radial-gradient-5" cx="0.5" cy="0.5" r="0.875" gradientTransform="translate(0.211 306.644) scale(0.577 0.517)" xlink:href="#radial-gradient-2"/>
    <linearGradient id="linear-gradient-16" y1="0.5" x2="1" y2="0.5" gradientUnits="objectBoundingBox">
      <stop offset="0" stop-color="#5d7dbe"/>
      <stop offset="0.003" stop-color="#5c7cbd"/>
      <stop offset="0.412" stop-color="#4a649e"/>
      <stop offset="0.759" stop-color="#3f568b"/>
      <stop offset="1" stop-color="#3c5185"/>
    </linearGradient>
    <linearGradient id="linear-gradient-18" x1="0.53" y1="0.758" x2="0.498" y2="0.088" gradientUnits="objectBoundingBox">
      <stop offset="0" stop-color="#3c5185"/>
      <stop offset="0.241" stop-color="#3f568b"/>
      <stop offset="0.588" stop-color="#4a649e"/>
      <stop offset="0.997" stop-color="#5c7cbd"/>
      <stop offset="1" stop-color="#5d7dbe"/>
    </linearGradient>
    <linearGradient id="linear-gradient-19" x1="1.824" y1="1.054" x2="2.367" y2="0.168" gradientUnits="objectBoundingBox">
      <stop offset="0.004" stop-color="#3c5185"/>
      <stop offset="1" stop-color="#5d7dbe"/>
    </linearGradient>
    <linearGradient id="linear-gradient-20" x1="1.733" y1="0.5" x2="2.733" y2="0.5" xlink:href="#linear-gradient-5"/>
    <linearGradient id="linear-gradient-21" x1="0.978" y1="0.996" x2="0.108" y2="0.088" xlink:href="#linear-gradient-5"/>
    <linearGradient id="linear-gradient-22" x1="17.703" y1="0.5" x2="18.703" y2="0.5" xlink:href="#linear-gradient-19"/>
    <linearGradient id="linear-gradient-24" y1="0.5" x2="1" y2="0.5" gradientUnits="objectBoundingBox">
      <stop offset="0" stop-color="#5d7dbe"/>
      <stop offset="0.996" stop-color="#3c5185"/>
    </linearGradient>
    <linearGradient id="linear-gradient-25" x1="0" y1="0.5" x2="1" y2="0.5" xlink:href="#linear-gradient-19"/>
    <linearGradient id="linear-gradient-27" y1="0.5" x2="1" y2="0.5" gradientUnits="objectBoundingBox">
      <stop offset="0" stop-color="#a8d9fb"/>
      <stop offset="1" stop-color="#fff"/>
    </linearGradient>
    <linearGradient id="linear-gradient-30" x1="0" y1="0.5" x2="1" y2="0.5" xlink:href="#linear-gradient-27"/>
  </defs>
  <g id="グループ_526" data-name="グループ 526" transform="translate(-294.476 -264.502)">
    <g id="グループ_442" data-name="グループ 442" transform="translate(327.458 538.971)">
      <ellipse id="楕円形_53" data-name="楕円形 53" cx="224.309" cy="129.504" rx="224.309" ry="129.504" transform="translate(0 110.329)" fill="url(#radial-gradient)" style="mix-blend-mode: multiply;isolation: isolate"/>
      <path id="パス_3722" data-name="パス 3722" d="M663.175,422.337H643.723c-7.978-8.9-18.389-17.249-31.277-24.689-67.644-39.055-178.327-39.055-245.971,0-12.884,7.44-23.3,15.786-31.277,24.689H315.746v45.946h.015c-.161,25.86,16.734,51.754,50.714,71.372,67.644,39.055,178.327,39.055,245.971,0,33.979-19.617,50.875-45.512,50.714-71.372h.015Z" transform="translate(-267.072 -244.122)" fill="url(#linear-gradient)"/>
      <path id="パス_3723" data-name="パス 3723" d="M366.476,385.581c67.644-39.051,178.327-39.051,245.971,0s67.64,102.959,0,142.01-178.327,39.051-245.971,0S298.836,424.636,366.476,385.581Z" transform="translate(-267.072 -278.373)" fill="#fff"/>
      <path id="パス_3724" data-name="パス 3724" d="M462.341,439.191c.012-.618.012-1.236,0-1.85V399.3H448.855c-8.45-11.663-20.827-22.585-37.2-32.044-47.792-27.591-15.706,77.771,0,142.01v46.3c33.127-19.126,49.988-44.214,50.668-69.425Z" transform="translate(-66.276 -260.05)" fill="#ffda6a"/>
      <path id="パス_3725" data-name="パス 3725" d="M574.931,365.287c-67.644-39.055-178.327-39.055-245.971,0l122.984,83.99Z" transform="translate(-229.556 -335.996)" fill="url(#linear-gradient-2)"/>
      <path id="パス_3726" data-name="パス 3726" d="M328.96,343.626v77.919l122.984,83.991v-77.92Z" transform="translate(-229.555 -314.336)" fill="url(#linear-gradient-3)"/>
      <path id="パス_3727" data-name="パス 3727" d="M361,427.615l122.984-83.99v77.919L361,505.535Z" transform="translate(-138.606 -314.336)" fill="url(#linear-gradient-4)"/>
      <path id="パス_3728" data-name="パス 3728" d="M483.982,353.774c67.64,39.055,67.64,102.959,0,142.01L360.995,437.764Z" transform="translate(-138.608 -285.524)" fill="url(#linear-gradient-5)"/>
      <path id="パス_3729" data-name="パス 3729" d="M361,375.652v38.96L483.979,472.63V433.671Z" transform="translate(-138.606 -223.412)" fill="#ffcd39"/>
    </g>
    <g id="グループ_456" data-name="グループ 456" transform="translate(659.076 576.411)">
      <path id="パス_3730" data-name="パス 3730" d="M427.924,390.2a18.688,18.688,0,1,1-18.688-18.689A18.691,18.691,0,0,1,427.924,390.2Z" transform="translate(-386.326 -272.609)" fill="url(#linear-gradient-6)"/>
      <path id="パス_3731" data-name="パス 3731" d="M407.662,397.251v5.87a4.645,4.645,0,0,0,2.2,3.958l17.859,11.033a5.782,5.782,0,0,0,6.043.027l5.467-3.094a3.446,3.446,0,0,0,1.747-3.017l-.011-3.371a2.32,2.32,0,0,1-1.851-.415l-11.886-7.2v-3.789Z" transform="translate(-337.736 -199.532)" fill="#a5cbef"/>
      <path id="パス_3732" data-name="パス 3732" d="M407.662,396.4v5.874a4.654,4.654,0,0,0,2.2,3.958l17.859,11.033a5.782,5.782,0,0,0,6.043.023l5.355-3.252a3.884,3.884,0,0,0,0-6.642l-11.886-7.2V396.4Z" transform="translate(-337.736 -201.954)" fill="#3c5185"/>
      <g id="グループ_443" data-name="グループ 443" transform="translate(81.96 200.566)">
        <path id="パス_3733" data-name="パス 3733" d="M410.8,403.144V401.96l6.869-3.967.015,1.078Z" transform="translate(-410.797 -397.993)" fill="#3c5185"/>
      </g>
      <g id="グループ_444" data-name="グループ 444" transform="translate(84.548 202.921)">
        <path id="パス_3734" data-name="パス 3734" d="M411.471,403.7v-1.128l6.872-3.967.041,1Z" transform="translate(-411.471 -398.606)" fill="#3c5185"/>
      </g>
      <g id="グループ_445" data-name="グループ 445" transform="translate(87.984 205.332)">
        <path id="パス_3735" data-name="パス 3735" d="M412.366,404.333V403.2l6.871-3.967-.036,1.128Z" transform="translate(-412.366 -399.234)" fill="#3c5185"/>
      </g>
      <path id="パス_3736" data-name="パス 3736" d="M410.52,404.577c-3.812-2.2-3.812-5.8,0-8a15.378,15.378,0,0,1,13.859,0c3.812,2.2,3.812,5.8,0,8A15.377,15.377,0,0,1,410.52,404.577Z" transform="translate(-337.738 -206.132)" fill="#3c5185"/>
      <path id="パス_3737" data-name="パス 3737" d="M410.414,401.795c-2.514-1.451-2.514-3.828,0-5.279a10.149,10.149,0,0,1,9.145,0c2.515,1.451,2.515,3.828,0,5.279A10.149,10.149,0,0,1,410.414,401.795Z" transform="translate(-335.275 -204.709)" fill="#363650"/>
      <path id="パス_3738" data-name="パス 3738" d="M402.908,400.081v5.87a4.657,4.657,0,0,0,2.207,3.958l17.859,11.033a5.782,5.782,0,0,0,6.043.023l5.467-3.094a3.444,3.444,0,0,0,1.747-3.014l-.012-3.371a2.32,2.32,0,0,1-1.85-.415l-11.886-7.2v-3.789Z" transform="translate(-351.233 -191.497)" fill="#a5cbef"/>
      <path id="パス_3739" data-name="パス 3739" d="M402.908,399.228V405.1a4.657,4.657,0,0,0,2.207,3.958l17.859,11.033a5.781,5.781,0,0,0,6.043.023l5.355-3.252a3.887,3.887,0,0,0,0-6.645l-11.886-7.2v-3.793Z" transform="translate(-351.233 -193.919)" fill="#3c5185"/>
      <g id="グループ_446" data-name="グループ 446" transform="translate(63.712 211.431)">
        <path id="パス_3740" data-name="パス 3740" d="M406.043,405.972v-1.183l6.87-3.966.015,1.077Z" transform="translate(-406.043 -400.823)" fill="#3c5185"/>
      </g>
      <g id="グループ_447" data-name="グループ 447" transform="translate(66.301 213.785)">
        <path id="パス_3741" data-name="パス 3741" d="M406.718,406.531V405.4l6.87-3.967.041,1.005Z" transform="translate(-406.718 -401.436)" fill="#3c5185"/>
      </g>
      <g id="グループ_448" data-name="グループ 448" transform="translate(69.737 216.196)">
        <path id="パス_3742" data-name="パス 3742" d="M407.613,407.163V406.03l6.87-3.966-.036,1.128Z" transform="translate(-407.613 -402.064)" fill="#3c5185"/>
      </g>
      <path id="パス_3743" data-name="パス 3743" d="M405.767,407.406c-3.812-2.2-3.812-5.8,0-8a15.377,15.377,0,0,1,13.859,0c3.808,2.2,3.808,5.8,0,8A15.377,15.377,0,0,1,405.767,407.406Z" transform="translate(-351.232 -198.097)" fill="#3c5185"/>
      <path id="パス_3744" data-name="パス 3744" d="M405.662,404.623c-2.515-1.451-2.515-3.824,0-5.279a10.148,10.148,0,0,1,9.145,0c2.515,1.455,2.515,3.827,0,5.279A10.124,10.124,0,0,1,405.662,404.623Z" transform="translate(-348.769 -196.677)" fill="#363650"/>
      <g id="グループ_449" data-name="グループ 449" transform="translate(24.264 92.683)">
        <path id="パス_3745" data-name="パス 3745" d="M451.069,475.7c-4.369,0-7.908.391-7.908-3.977V429.857A20.192,20.192,0,0,0,433.068,412.4l-29.791-15.786c-6.1-3.509-7.509-10.058-7.509-17.1V377.8a7.91,7.91,0,1,1,15.821,0v1.72a3.907,3.907,0,0,0,1.958,3.382l27.418,15.786a36.058,36.058,0,0,1,18.017,31.165v41.868C458.982,476.094,455.438,475.7,451.069,475.7Z" transform="translate(-395.768 -369.891)" fill="url(#linear-gradient-6)"/>
      </g>
      <g id="グループ_450" data-name="グループ 450" transform="translate(6.071 102.968)">
        <path id="パス_3746" data-name="パス 3746" d="M446.422,478.458c-4.369,0-8,.315-8-4.054V432.536a20.187,20.187,0,0,0-10.089-17.452l-30.582-14.2c-6.1-3.509-6.718-11.644-6.718-18.677v-1.72a7.91,7.91,0,1,1,15.821,0v1.72a3.911,3.911,0,0,0,1.954,3.382l27.418,15.786c11.114,6.4,18.017,14.4,18.017,27.23v45.8C454.239,478.773,450.791,478.458,446.422,478.458Z" transform="translate(-391.029 -372.57)" fill="url(#linear-gradient-6)"/>
      </g>
      <g id="グループ_451" data-name="グループ 451" transform="translate(14.394 108.258)">
        <path id="パス_3747" data-name="パス 3747" d="M416.008,407.578l-21.264-9.724a2.973,2.973,0,0,1-.061-5.183l32.39-18.723,23.913,14.212Z" transform="translate(-393.197 -373.948)" fill="#f6f8fb"/>
        <path id="パス_3748" data-name="パス 3748" d="M414.6,404.306,396.05,396.04a2.568,2.568,0,0,1-.05-4.476l29.63-17.126L446.261,386.7Z" transform="translate(-388.883 -372.557)" fill="#e5e9f4"/>
      </g>
      <g id="グループ_452" data-name="グループ 452" transform="translate(35.064 45.871)">
        <path id="パス_3749" data-name="パス 3749" d="M413.534,433.336a4.746,4.746,0,0,1-4.745-4.745V410.114c0-10.972-1.513-16.232-4.492-26.789l-5.536-19.591a4.747,4.747,0,1,1,9.137-2.58l5.532,19.587c3.221,11.4,4.853,17.525,4.853,29.372v18.477A4.744,4.744,0,0,1,413.534,433.336Z" transform="translate(-398.581 -357.697)" fill="#edf3fa"/>
      </g>
      <path id="パス_3750" data-name="パス 3750" d="M414.138,355.881l-3.9,2.257c-12.957,7.479-18.316,12.035-20.2,26.873-2.161,17.034,2.323,61.586,2.323,61.586,19.556-1.1,38.306-25.357,38.306-25.357-3.451-21.994,3.574-33.135,3.716-47.9C434.458,365.54,423.5,350.479,414.138,355.881Z" transform="translate(-389.448 -320.231)" fill="#edf3fa"/>
      <path id="パス_3751" data-name="パス 3751" d="M427.047,373.345c.077-7.8-10.884-22.865-20.243-17.464l-3.9,2.257a48.017,48.017,0,0,0-10.868,8.58,47.848,47.848,0,0,1,9.736-7.448l3.9-2.254c9.36-5.405,20.32,9.655,20.243,17.46-.142,14.746-7.152,25.871-3.724,47.834.718-.66,1.14-1.071,1.14-1.071C419.879,399.246,426.9,388.106,427.047,373.345Z" transform="translate(-382.113 -320.231)" fill="#fff" opacity="0.15"/>
      <path id="長方形_77" data-name="長方形 77" d="M0,0H9.02a0,0,0,0,1,0,0V13.85a.9.9,0,0,1-.9.9H.9a.9.9,0,0,1-.9-.9V0A0,0,0,0,1,0,0Z" transform="translate(18.391 33.887)" fill="#f2b1b5"/>
      <path id="パス_3752" data-name="パス 3752" d="M396.072,355.706l-2.48,1.319,3.783,21.214,5.063-12.529Z" transform="translate(-377.681 -317.481)" fill="#fff"/>
      <path id="パス_3753" data-name="パス 3753" d="M395.9,368.25l2.655-13.439H399.7l5.106,17.807Z" transform="translate(-371.139 -320.021)" fill="#fff"/>
      <g id="グループ_453" data-name="グループ 453" transform="translate(3.703 58.263)">
        <path id="パス_3754" data-name="パス 3754" d="M419.458,438.269a4.733,4.733,0,0,1-3.751-1.835l-14.189-18.251a52.772,52.772,0,0,1-11.045-34.912l1.132-17.825a4.745,4.745,0,1,1,9.479.457l-1.129,17.825a43.273,43.273,0,0,0,9.056,28.628L423.2,430.61a4.745,4.745,0,0,1-3.743,7.659Z" transform="translate(-390.412 -360.925)" fill="#f2b1b5"/>
      </g>
      <path id="パス_3755" data-name="パス 3755" d="M410.39,385.286l-14.684-5.5a1.268,1.268,0,0,1-.745-1.632l.418-1.11a1.27,1.27,0,0,1,1.635-.741l14.68,5.5a1.269,1.269,0,0,1,.745,1.632l-.415,1.11A1.272,1.272,0,0,1,410.39,385.286Z" transform="translate(-374.025 -259.235)" fill="#f2b1b5"/>
      <g id="グループ_454" data-name="グループ 454" transform="translate(35.117 94.868)">
        <path id="パス_3756" data-name="パス 3756" d="M440.195,370.667l-.48-.138a1.7,1.7,0,0,0-1.328.161l-35.116,20.1a3.352,3.352,0,0,0-1.509,2.6l-3.167,24.067a.69.69,0,0,0,.3.564l.534.369,36.1-20.946a3.31,3.31,0,0,0,1.5-2.588Z" transform="translate(-398.595 -370.46)" fill="url(#linear-gradient-9)"/>
        <path id="パス_3757" data-name="パス 3757" d="M440.424,371.554c0-.952-.676-1.34-1.5-.864L403.5,391.145a3.347,3.347,0,0,0-1.5,2.591l-3.325,23.549c0,.952.664,1.344,1.489.871l35.6-20.366a3.309,3.309,0,0,0,1.5-2.588Z" transform="translate(-398.391 -370.384)" fill="#f6f8fb"/>
        <path id="パス_3758" data-name="パス 3758" d="M407.643,376.312a6.6,6.6,0,0,0-3.543,4.046c-.5,1.72.288,2.71,1.739,2.2a6.653,6.653,0,0,0,3.547-4.046C409.885,376.8,409.1,375.805,407.643,376.312Z" transform="translate(-383.388 -354.223)" fill="#e5e9f4"/>
      </g>
      <path id="パス_3759" data-name="パス 3759" d="M405.8,398.02c-3.079-5.563-5.858-11.955-5.636-16.592,0,0-.518-17.944-3.57-18.093-3.01-.134-4.634-3.321-4.78-.265l-1.133,17.825a53.589,53.589,0,0,0,11.056,35.235l3.1,5.436c4.177-1.9,7.878-6.181,11.283-8.492A126.44,126.44,0,0,1,405.8,398.02Z" transform="translate(-386.124 -300.324)" fill="#3c5185" opacity="0.33"/>
      <g id="グループ_455" data-name="グループ 455" transform="translate(2.912 57.473)">
        <path id="パス_3760" data-name="パス 3760" d="M415.133,419.24l-4.626-6.385s-9.663-18.381-9.175-28.5l1.129-17.829a5.536,5.536,0,1,0-11.06-.53l-1.133,17.825a53.59,53.59,0,0,0,11.057,35.235l6.3,7.321Z" transform="translate(-390.206 -360.719)" fill="#edf3fa"/>
      </g>
      <path id="パス_3761" data-name="パス 3761" d="M399.046,376.539l-1.09-.215c-2.933-.587-5.313-10.8-4.726-13.732l3-15.049,24.816,4.952-4.411,21.011C414.813,382.639,408.183,378.367,399.046,376.539Z" transform="translate(-378.963 -340.655)" fill="#f2b1b5"/>
      <path id="パス_3762" data-name="パス 3762" d="M426.7,356.7a10.287,10.287,0,0,0-3.39-5.313c-4.887-4.323-16.492-8.9-21.545-2.388-1.355-1.766-4.246-1.6-5.989-.215s-2.591,3.59-3.252,5.716c-.779,2.518-1.478,4.91-.849,7.532a51.128,51.128,0,0,0,5.528,13.072c.53.933,1.958,3.3,2.707,1.754,1.405-2.895-2.929-6.822-.207-9.218a2.94,2.94,0,0,1,3.943.2c.845.9,1.052,2.3,2,3.083a2.417,2.417,0,0,0,2.537.311.608.608,0,0,0,.3-.253.693.693,0,0,0-.027-.5,19.743,19.743,0,0,1-.8-7.452,2.028,2.028,0,0,1,1.858-2.353,16.98,16.98,0,0,1,4.023-.726c1.428.111,2.707.895,4.069,1.344s3.079.468,3.989-.641c.28-.346.48-.795.883-.983a1.513,1.513,0,0,1,1.382.234c.584.369,1.263,1.014,2.031.806C427.448,360.292,426.949,357.793,426.7,356.7Z" transform="translate(-383.804 -345.749)" fill="#3c5185"/>
      <path id="パス_3763" data-name="パス 3763" d="M413.537,359.341a3.7,3.7,0,0,0-1.789-2.806,4.75,4.75,0,0,0-2.438-.226,10.724,10.724,0,0,0-3.159.587,4.159,4.159,0,0,0-2.181,2c-.322.611-.315,2.269-.768,2.6-3.528-1.328-1.148-5.494-2.472-8.035a3.477,3.477,0,0,0-1.973-1.9c-3.382-.921-1.708,4.553-2.253,6-.633,1.678-2.388,3-2.257,4.783.169,2.219,2.534,3.8,4.146,5,1.766,1.305,3.39,3.482,5.716,3.44a11.541,11.541,0,0,0,3.2-.676c2.081-.653,4.254-.983,5.566-2.9,1.255-1.82,1.087-4.231.868-6.434A13.694,13.694,0,0,0,413.537,359.341Z" transform="translate(-375.844 -329.526)" fill="#3c5185"/>
    </g>
    <g id="グループ_457" data-name="グループ 457" transform="translate(735.322 612.312)">
      <path id="パス_3764" data-name="パス 3764" d="M418.4,360.81c12.12-7,31.956-7,44.076,0s12.12,18.447,0,25.445-31.956,7-44.076,0S406.278,367.8,418.4,360.81Z" transform="translate(-409.308 -353.793)" fill="url(#radial-gradient-2)" style="mix-blend-mode: multiply;isolation: isolate"/>
      <path id="パス_3765" data-name="パス 3765" d="M456.059,363.57h-2.5a16.134,16.134,0,0,0-4.008-3.167c-8.676-5.006-22.869-5.006-31.541,0A16.085,16.085,0,0,0,414,363.57h-2.5v5.889h0c-.023,3.317,2.146,6.638,6.5,9.152,8.672,5.01,22.865,5.01,31.541,0,4.357-2.515,6.523-5.835,6.5-9.152h0Z" transform="translate(-403.066 -350.706)" fill="url(#linear-gradient-10)"/>
      <path id="パス_3766" data-name="パス 3766" d="M418.014,358.858c8.672-5.01,22.865-5.01,31.541,0s8.672,13.2,0,18.208-22.869,5.01-31.541,0S409.338,363.864,418.014,358.858Z" transform="translate(-403.066 -355.1)" fill="#4a65a3"/>
      <path id="パス_3767" data-name="パス 3767" d="M433.117,366.444c.311-.43.084-.918-.449-1.152l-.357-.157a1.8,1.8,0,0,0,2.008-.465c.307-.43.085-.918-.449-1.152l-2.6-1.14-2.311-1.017s.426-.242.967-.576c.111-.073.23-.146.349-.223l.107-.069a10.483,10.483,0,0,0,1.447-1.086c.088-.084.257-.265.441-.468l.138-.153c.138-.154.269-.307.369-.426a.6.6,0,0,0,.088-.71.833.833,0,0,0-.384-.322,1.636,1.636,0,0,0-1.539.184,10.5,10.5,0,0,1-2.553,1.52c-.622.173-2.952.787-2.952.787l-.088-.042h0l-.944-.415.749-.733a.116.116,0,0,0-.042-.2l-3.428-1.509-4.626,4.522-2.28,2.23,3.409,1.5.019.008a.3.3,0,0,0,.307-.054l.012-.011.641-.63.591.261a.983.983,0,0,1,.165.092l0,0a.91.91,0,0,1,.127.115.564.564,0,0,1,.126.253l.242,1.275a.794.794,0,0,0,.5.553l4.622,2.031a1.956,1.956,0,0,0,1.793-.165.749.749,0,0,0-.1-1.394l1.06.465a1.953,1.953,0,0,0,1.8-.165.749.749,0,0,0-.107-1.393l1.125.5A1.792,1.792,0,0,0,433.117,366.444Z" transform="translate(-393.768 -349.945)" fill="#fff"/>
    </g>
    <g id="グループ_458" data-name="グループ 458" transform="translate(784.504 681.926)">
      <path id="パス_3768" data-name="パス 3768" d="M431.958,379.415c13.118-7.571,34.582-7.574,47.7,0s13.118,19.967,0,27.537-34.578,7.574-47.7,0S418.84,386.989,431.958,379.415Z" transform="translate(-422.119 -371.808)" fill="url(#radial-gradient-3)" style="mix-blend-mode: multiply;isolation: isolate"/>
      <path id="パス_3769" data-name="パス 3769" d="M472.714,382.4h-2.7a17.544,17.544,0,0,0-4.342-3.424c-9.386-5.421-24.746-5.421-34.133,0A17.616,17.616,0,0,0,427.2,382.4h-2.7v6.377h0c-.023,3.59,2.323,7.183,7.037,9.9,9.387,5.421,24.746,5.421,34.133,0,4.718-2.722,7.06-6.315,7.041-9.9h0Z" transform="translate(-415.363 -368.468)" fill="url(#linear-gradient-11)"/>
      <ellipse id="楕円形_54" data-name="楕円形 54" cx="24.136" cy="13.935" rx="24.136" ry="13.935" transform="translate(9.108)" fill="url(#linear-gradient-12)"/>
      <path id="パス_3770" data-name="パス 3770" d="M440.562,386.523s-.342,0-.465,0l-10.68-.948-.38-7.306a2.715,2.715,0,0,1,1.386-2.361c1.954-1.24,5.229-.96,7.317.63a3.682,3.682,0,0,1,1.636,2.726,7.238,7.238,0,0,1,3.762,1.374c2.089,1.589,2.2,3.881.25,5.121A5.522,5.522,0,0,1,440.562,386.523Z" transform="translate(-402.48 -367.848)" fill="#fff"/>
    </g>
    <g id="グループ_459" data-name="グループ 459" transform="translate(294.476 672.634)">
      <path id="パス_3771" data-name="パス 3771" d="M304.6,377.17c13.5-7.793,35.584-7.793,49.082,0s13.494,20.543,0,28.336-35.584,7.789-49.082,0S291.1,384.96,304.6,377.17Z" transform="translate(-294.476 -369.359)" fill="url(#radial-gradient-4)" style="mix-blend-mode: multiply;isolation: isolate"/>
      <path id="パス_3772" data-name="パス 3772" d="M346.537,380.245h-2.779a18.005,18.005,0,0,0-4.465-3.528c-9.659-5.574-25.464-5.574-35.123,0a18.013,18.013,0,0,0-4.465,3.528h-2.779v6.561h0c-.023,3.689,2.388,7.386,7.24,10.189,9.659,5.578,25.464,5.578,35.123,0,4.853-2.8,7.264-6.5,7.24-10.189h0Z" transform="translate(-287.523 -365.922)" fill="url(#linear-gradient-11)"/>
      <path id="パス_3773" data-name="パス 3773" d="M304.169,375c9.659-5.578,25.464-5.578,35.123,0s9.659,14.7,0,20.278-25.464,5.574-35.123,0S294.51,380.571,304.169,375Z" transform="translate(-287.523 -370.813)" fill="url(#linear-gradient-5)"/>
      <path id="パス_3774" data-name="パス 3774" d="M325.5,382.287c-.392-2.35-2.741-4.841-6.438-6.837a22.929,22.929,0,0,0-10.569-2.922c-3.167,0-5.762.921-7.3,2.6a4.211,4.211,0,0,0-1.125,3.655c.415,2.472,2.879,5.144,6.592,7.148a25.142,25.142,0,0,0,6.461,2.537l.434.1.18-1.747-.345-.073a20.97,20.97,0,0,1-5.309-2.065c-3.014-1.628-4.918-3.616-5.229-5.459a3.042,3.042,0,0,1,.86-2.657,7.6,7.6,0,0,1,5.782-2.1,17.9,17.9,0,0,1,8.269,2.257c2.933,1.582,4.7,3.386,4.987,5.072a2.828,2.828,0,0,1-.8,2.453,4.912,4.912,0,0,1-5.659.887c-.319-.18-.491-.361-.491-.511,0-.1.077-.464,1.136-1.086l4.15-2.5-.372-.357a15.881,15.881,0,0,0-3.263-2.269,15.266,15.266,0,0,0-7.048-1.919,6.1,6.1,0,0,0-4.542,1.543,2.063,2.063,0,0,0-.568,1.785,4.2,4.2,0,0,0,2.369,2.691,9.653,9.653,0,0,0,4.672,1.255c.25,0,.5-.012.753-.031a1.378,1.378,0,0,0-.069.637c.123.96,1.159,1.654,1.766,1.981a10.328,10.328,0,0,0,4.818,1.255,6.477,6.477,0,0,0,4.868-1.927A3.911,3.911,0,0,0,325.5,382.287Zm-17.072-2.038a.669.669,0,0,1,.215-.584,4.22,4.22,0,0,1,3.087-1.029,9,9,0,0,1,4.192,1.09,11.6,11.6,0,0,1,1.006.607l-1.808,1.094a5.5,5.5,0,0,1-2.7.606,6.1,6.1,0,0,1-2.825-.634C308.9,381.028,308.486,380.617,308.425,380.248Z" transform="translate(-278.78 -365.945)" fill="#fff"/>
    </g>
    <g id="グループ_460" data-name="グループ 460" transform="translate(413.617 477.716)">
      <path id="パス_3775" data-name="パス 3775" d="M337.315,327.456c15.744-9.091,41.5-9.091,57.248,0s15.744,23.963,0,33.05-41.5,9.091-57.248,0S321.575,336.543,337.315,327.456Z" transform="translate(-325.51 -318.344)" fill="url(#radial-gradient-5)" style="mix-blend-mode: multiply;isolation: isolate"/>
      <path id="パス_3776" data-name="パス 3776" d="M386.232,331.042h-3.24a21.15,21.15,0,0,0-5.21-4.112c-11.264-6.507-29.7-6.507-40.967,0a21.151,21.151,0,0,0-5.21,4.112h-3.24v7.651h0c-.027,4.307,2.787,8.619,8.446,11.889,11.268,6.5,29.7,6.5,40.967,0,5.663-3.271,8.477-7.582,8.45-11.889h0Z" transform="translate(-317.402 -314.336)" fill="url(#linear-gradient-10)"/>
      <path id="パス_3777" data-name="パス 3777" d="M336.814,324.918c11.268-6.5,29.7-6.5,40.966,0s11.268,17.149,0,23.652-29.7,6.507-40.966,0S325.551,331.425,336.814,324.918Z" transform="translate(-317.4 -320.04)" fill="#3c5185"/>
      <path id="パス_3778" data-name="パス 3778" d="M345.461,336.784a9.485,9.485,0,0,1-7.567-.38c-2.05-1.159-1.992-2.864.134-3.808a6.659,6.659,0,0,1,1.34-.407l-1.4-4.254a8.706,8.706,0,0,1-3.651-.971c-2.054-1.156-1.992-2.86.13-3.808a9.485,9.485,0,0,1,7.567.384c1.036.583,1.532,1.305,1.5,2l8.031,1.263a3.476,3.476,0,0,1,1.044-.691,9.484,9.484,0,0,1,7.567.38c2.054,1.159,1.992,2.864-.13,3.808a9.485,9.485,0,0,1-7.567-.38,2.452,2.452,0,0,1-1.49-1.9l-8.139-1.282a3.812,3.812,0,0,1-.944.6,6.924,6.924,0,0,1-1.432.426l1.4,4.223a8.751,8.751,0,0,1,3.747.979C347.645,334.135,347.588,335.84,345.461,336.784Z" transform="translate(-304.783 -312.93)" fill="#fff"/>
    </g>
    <g id="グループ_468" data-name="グループ 468" transform="translate(482.224 348.289)">
      <path id="パス_3779" data-name="パス 3779" d="M362.191,349.289l-12.178,5.747a6.167,6.167,0,0,0-2.814,2.676h0a6,6,0,0,0,.3,6.139h0A9,9,0,0,0,356.782,366l14.9-5.125,1.624-1.985h1.6l2.611.879,8.361-1.324.541-11.959-13.314-4.446Z" transform="translate(-334.538 -128.164)" fill="#3c5185"/>
      <g id="グループ_461" data-name="グループ 461" transform="translate(37.227 97.1)">
        <path id="パス_3780" data-name="パス 3780" d="M361.221,438.915c-4.246,0-6.6-3.425-6.638-7.678l-1.5-57.394,1.7-55.179c.388-4.261,7.5-7.394,11.736-7.014,4.265.388,14.043,9.69,13.659,13.951l-12.7,48.875.392,56.618c.038,4.28-2.292,7.778-6.572,7.82Z" transform="translate(-353.078 -311.62)" fill="url(#linear-gradient-16)"/>
      </g>
      <path id="パス_3781" data-name="パス 3781" d="M372.927,347.561l-13.295,16.266a15.016,15.016,0,0,0-2.142,3.586l-.5,1.19a4.849,4.849,0,0,0,1.121,5.386l.676.645a4.834,4.834,0,0,0,5.375.891l1.9-.875a15.062,15.062,0,0,0,4.841-3.563l7.8-7.16,1.582-3.666.768-.706,1.325,1,3.313-3.04a4.109,4.109,0,0,0,1.34-3.793l-.871-5.014Z" transform="translate(-305.828 -112.481)" fill="#3c5185"/>
      <g id="グループ_462" data-name="グループ 462" transform="translate(26.187 33.912)">
        <path id="パス_3782" data-name="パス 3782" d="M371.366,378.412a4.989,4.989,0,0,1-4.507-2.852l-14.174-29.883a25.943,25.943,0,0,1,2.069-25.752l15.571-22.612a4.983,4.983,0,0,1,8.208,5.651l-15.575,22.612a15.952,15.952,0,0,0-1.271,15.832l14.174,29.887a4.989,4.989,0,0,1-4.5,7.118Z" transform="translate(-350.202 -295.16)" fill="#f2b1b5"/>
      </g>
      <g id="グループ_463" data-name="グループ 463" transform="translate(28.987 33.042)">
        <path id="パス_3783" data-name="パス 3783" d="M356.776,329.244a5.849,5.849,0,0,1-4.81-9.168l15.575-22.608a5.848,5.848,0,1,1,9.632,6.634L361.6,326.71A5.829,5.829,0,0,1,356.776,329.244Z" transform="translate(-350.932 -294.934)" fill="#fff"/>
      </g>
      <g id="グループ_464" data-name="グループ 464" transform="translate(41.089 98.036)">
        <path id="パス_3784" data-name="パス 3784" d="M387.027,455.38c-4.2,0-6.538-3.352-6.634-7.571l-5.816-70.481-5.532-31.184L354.084,326.45l14.132-12.961c.111-4.277,14.742,1.229,19.019,1.313,4.277.115,10.976,15.848,10.865,20.128l-6.914,44.636,2.484,67.882c.1,4.28-2.177,7.828-6.457,7.928Z" transform="translate(-354.084 -311.864)" fill="url(#linear-gradient-6)"/>
      </g>
      <path id="パス_3785" data-name="パス 3785" d="M391.709,303.264a22.962,22.962,0,0,1,11.479,19.882l-.645,3.551a183.089,183.089,0,0,0-2.7,42.049l1.129,21.99c-13.828,6.365-40.368-4.6-47.65-17.721l1.336-36.294-1.271-23.08a17.772,17.772,0,0,1,25.875-16.78Z" transform="translate(-315.158 -262.09)" fill="#fff"/>
      <path id="パス_3786" data-name="パス 3786" d="M361.081,315.642h.461c3.217,0,8.054-6.285,8.054-9.5v-9.678a3.557,3.557,0,0,0-3.555-3.555H361.5a3.557,3.557,0,0,0-3.555,3.555v9.678C357.941,309.357,357.86,315.642,361.081,315.642Z" transform="translate(-302.045 -267.646)" fill="#f2b1b5"/>
      <path id="長方形_78" data-name="長方形 78" d="M1.337,0H21.175a3.567,3.567,0,0,1,3.567,3.567v23.7a0,0,0,0,1,0,0H0a0,0,0,0,1,0,0V1.337A1.337,1.337,0,0,1,1.337,0Z" transform="translate(72.567 32.474) rotate(168.714)" fill="#f2b1b5"/>
      <path id="パス_3787" data-name="パス 3787" d="M372.472,301.2a7.367,7.367,0,0,1,3.908,4.688c.365,1.409-.1,1.981-.779,3.213a3.189,3.189,0,0,0-.465,2.3.513.513,0,0,0,.119.242.506.506,0,0,0,.265.107c.8.107,1.466-.584,1.962-1.225.749-.971,1.781-1.862,2.9-.833,1.217,1.121.43,2.369-.046,3.524-.572,1.4-1.251,4.469.292,5.574,1.236.887,3.943-.273,5.06-.967.169-.107.334-.219.491-.342,3.309-2.587,2.81-7.709,3.317-11.413.415-3.021-.357-5.586-.772-8.507-.4-2.845-.315-5.474-2.411-7.755-1.92-2.092-5.513-2.795-7.621-.895a7.3,7.3,0,0,0-4.922-2.5,21.739,21.739,0,0,0-5.64.3,19.923,19.923,0,0,0-9.06,3.532,27.317,27.317,0,0,0-3.682,3.436c-1.175,1.144-1.144,2.63-.814,4.2a21.359,21.359,0,0,0,1.985,5.033,1.284,1.284,0,0,0,.322-.614c.5-1.6.518-2.96,1.716-4.246,1.125-1.2,2.157-.944,3.666-.4a4.137,4.137,0,0,1,1.209.633c.948.776.7,2.012,1.8,2.726a4.329,4.329,0,0,0,3.071.365,12.611,12.611,0,0,1,3.129-.407A3.48,3.48,0,0,1,372.472,301.2Z" transform="translate(-312.164 -286.327)" fill="#48486a"/>
      <path id="パス_3788" data-name="パス 3788" d="M344.056,294.482l54.937-3.344c.837.787.672,3.663,0,4.592L353.3,311Z" transform="translate(-341.465 -272.669)" fill="url(#linear-gradient-18)"/>
      <path id="パス_3789" data-name="パス 3789" d="M350.122,292.873c-3.709-2.138-6.741-.388-6.741,3.893a14.954,14.954,0,0,0,6.741,11.675c3.708,2.142,6.741.388,6.741-3.893A14.955,14.955,0,0,0,350.122,292.873Z" transform="translate(-343.381 -270.334)" fill="#4a65a3"/>
      <path id="パス_3790" data-name="パス 3790" d="M349.509,293.041c-3.252-1.877-5.912-.342-5.912,3.413a13.114,13.114,0,0,0,5.912,10.239c3.252,1.877,5.912.342,5.912-3.413A13.113,13.113,0,0,0,349.509,293.041Z" transform="translate(-342.768 -269.542)" fill="#a5cbef"/>
      <path id="パス_3791" data-name="パス 3791" d="M398.384,311.7a4.983,4.983,0,0,0-6.86-1.6L374.6,320.63a8.117,8.117,0,0,1-12.177-4.972l-4.983-19.111a17.468,17.468,0,0,0-4.085,12.312l.7,12.669a17.808,17.808,0,0,0,9.475,8.972,17.885,17.885,0,0,0,16.335-1.413l16.919-10.53A4.976,4.976,0,0,0,398.384,311.7Z" transform="translate(-315.131 -257.309)" fill="#b7d5f2" opacity="0.3"/>
      <g id="グループ_465" data-name="グループ 465" transform="translate(34.981 18.038)">
        <path id="パス_3792" data-name="パス 3792" d="M373.7,343.591a18.131,18.131,0,0,1-17.974-16.408l-3.2-30.663a4.983,4.983,0,0,1,9.912-1.033l3.2,30.712a8.12,8.12,0,0,0,11.291,6.749l18.312-7.866a4.98,4.98,0,1,1,3.931,9.152L380.86,342.1A18.072,18.072,0,0,1,373.7,343.591Z" transform="translate(-352.493 -291.026)" fill="#f2b1b5"/>
      </g>
      <g id="グループ_466" data-name="グループ 466" transform="translate(55.531 50.821)">
        <path id="パス_3793" data-name="パス 3793" d="M363.7,319.129A5.85,5.85,0,0,1,361.39,307.9l18.308-7.862a5.849,5.849,0,1,1,4.614,10.749L366,318.656A5.819,5.819,0,0,1,363.7,319.129Z" transform="translate(-357.846 -299.565)" fill="#fff"/>
      </g>
      <rect id="長方形_79" data-name="長方形 79" width="2.729" height="13.706" rx="0.292" transform="translate(45.401 19.816) rotate(11.24)" fill="#f2b1b5"/>
      <path id="パス_3794" data-name="パス 3794" d="M366.822,295.577l3.1,1.645-2.984,18.362-8.055-7.525Z" transform="translate(-299.382 -260.065)" fill="#3c5185"/>
      <path id="パス_3795" data-name="パス 3795" d="M366.564,309.887l-3.234-14.435-3.3-.518-3.861,17.155Z" transform="translate(-307.066 -261.893)" fill="#3c5185"/>
      <g id="グループ_467" data-name="グループ 467" transform="translate(1.106 22.823)">
        <path id="パス_3796" data-name="パス 3796" d="M349.978,293.04l-5.632,8.507a11.5,11.5,0,0,0,1.935,1.973l5.371-8.12A14.006,14.006,0,0,0,349.978,293.04Z" transform="translate(-341.747 -290.092)" fill="#b7d5f2"/>
        <path id="パス_3797" data-name="パス 3797" d="M345.577,302.787l5.536-8.369a9.709,9.709,0,0,0-1.808-1.47,5.819,5.819,0,0,0-1.785-.676l-3.85,5.82A13.154,13.154,0,0,0,345.577,302.787Z" transform="translate(-343.669 -292.272)" fill="#b7d5f2"/>
      </g>
    </g>
    <g id="グループ_478" data-name="グループ 478" transform="translate(578.752 264.502)">
      <g id="グループ_470" data-name="グループ 470" transform="translate(12.666 75.258)">
        <path id="パス_3798" data-name="パス 3798" d="M543.786,380.483,378.577,284.53a3.1,3.1,0,0,0-4.661,2.684V405.425a9.166,9.166,0,0,0,4.565,7.928L543.69,509.305a3.1,3.1,0,0,0,4.66-2.683V388.41A9.166,9.166,0,0,0,543.786,380.483Z" transform="translate(-365.885 -284.105)" fill="#3c5185"/>
        <path id="パス_3799" data-name="パス 3799" d="M544.957,508.825V390.613a9.166,9.166,0,0,0-4.564-7.928L375.183,286.733a3.058,3.058,0,0,0-1.236-.38,3.106,3.106,0,0,1,4.542-1.824L543.7,380.482a9.166,9.166,0,0,1,4.565,7.928V506.621a3.086,3.086,0,0,1-3.424,3.064A3.123,3.123,0,0,0,544.957,508.825Z" transform="translate(-365.797 -284.105)" fill="url(#linear-gradient-19)"/>
        <path id="パス_3800" data-name="パス 3800" d="M408.965,322.051H408.2v57.37l.762.442Z" transform="translate(-268.543 -176.375)" fill="#2d3d64"/>
        <path id="パス_3801" data-name="パス 3801" d="M381.174,362.258l.762.442V306.869h-.762Z" transform="translate(-345.28 -219.479)" fill="#2d3d64"/>
        <path id="パス_3802" data-name="パス 3802" d="M389.342,369.294l.762.442v-58.93h-.762Z" transform="translate(-322.09 -208.302)" fill="#2d3d64"/>
        <path id="パス_3803" data-name="パス 3803" d="M398.994,401.991l.762.442V306.869h-.762Z" transform="translate(-294.688 -219.479)" fill="#2d3d64"/>
        <path id="パス_3804" data-name="パス 3804" d="M383.316,308.021a1.221,1.221,0,1,1-2.349,0c0-.86.526-1.559,1.175-1.559S383.316,307.162,383.316,308.021Z" transform="translate(-345.867 -220.632)" fill="#2d3d64"/>
        <path id="パス_3805" data-name="パス 3805" d="M391.484,311.959a1.221,1.221,0,1,1-2.349,0c0-.86.526-1.559,1.175-1.559S391.484,311.1,391.484,311.959Z" transform="translate(-322.677 -209.454)" fill="#2d3d64"/>
        <path id="パス_3806" data-name="パス 3806" d="M401.136,308.021a1.221,1.221,0,1,1-2.35,0c0-.86.526-1.559,1.175-1.559S401.136,307.162,401.136,308.021Z" transform="translate(-295.275 -220.632)" fill="#2d3d64"/>
        <ellipse id="楕円形_55" data-name="楕円形 55" cx="1.175" cy="1.557" rx="1.175" ry="1.557" transform="translate(138.866 143.017)" fill="#2d3d64"/>
        <path id="パス_3807" data-name="パス 3807" d="M373.916,322.374v-2.238A16.751,16.751,0,0,0,385.64,318l3.908-2.38a21.626,21.626,0,0,1,21.165-.8l5.536,2.814a32.452,32.452,0,0,0,29.952-.3l2.426-1.294a21.469,21.469,0,0,1,29.5,9.747l16.063,33.887a72.382,72.382,0,0,0,30.394,32.444l23.767,13.226v2.522l-24.838-13.821A74.6,74.6,0,0,1,492.2,360.623l-16.063-33.887a19.257,19.257,0,0,0-26.466-8.745l-2.426,1.294a34.674,34.674,0,0,1-31.991.311l-5.536-2.814a19.44,19.44,0,0,0-19.022.722l-3.908,2.38A18.947,18.947,0,0,1,373.916,322.374Z" transform="translate(-365.885 -203.673)" fill="#05105d" opacity="0.1"/>
        <g id="グループ_469" data-name="グループ 469" transform="translate(0 104.356)">
          <path id="パス_3808" data-name="パス 3808" d="M557.065,406.883a1.1,1.1,0,0,0,.537-2.065l-24.877-13.843a72.383,72.383,0,0,1-30.394-32.444L486.27,324.643a21.469,21.469,0,0,0-29.5-9.747l-2.426,1.294a32.452,32.452,0,0,1-29.952.3l-5.536-2.814a21.625,21.625,0,0,0-21.165.8l-3.908,2.38a16.793,16.793,0,0,1-17.118.2l-3.186-1.843a1.1,1.1,0,0,0-1.1,1.908l3.186,1.843a19,19,0,0,0,19.364-.223l3.908-2.376a19.421,19.421,0,0,1,19.023-.722l5.536,2.81a34.663,34.663,0,0,0,31.991-.311l2.426-1.294a19.257,19.257,0,0,1,26.466,8.745l16.062,33.887A74.6,74.6,0,0,0,531.655,392.9l24.877,13.844A1.075,1.075,0,0,0,557.065,406.883Z" transform="translate(-371.824 -311.288)" fill="url(#linear-gradient-20)"/>
        </g>
      </g>
      <path id="パス_3809" data-name="パス 3809" d="M455.06,330.639l-49.892-28.977v55.992a3.343,3.343,0,0,0,1.5,2.6l52.959,30.574V338.567A9.166,9.166,0,0,0,455.06,330.639Z" transform="translate(-264.493 -159.004)" fill="#2d3d64" opacity="0.3"/>
      <g id="グループ_471" data-name="グループ 471" transform="translate(146.433 108.325)">
        <path id="パス_3810" data-name="パス 3810" d="M406.668,293.786c0-.952.676-1.34,1.5-.864l138.117,79.741a3.33,3.33,0,0,1,1.5,2.6v85.415c0,.952-.676,1.344-1.5.868L408.165,381.8a3.342,3.342,0,0,1-1.5-2.6Z" transform="translate(-406.668 -292.719)" fill="#4a65a3"/>
        <path id="パス_3811" data-name="パス 3811" d="M464.813,338.958a52.506,52.506,0,0,0-3.137-4.8,47.468,47.468,0,0,0-3.559-4.284,39.012,39.012,0,0,0-3.851-3.6,29.771,29.771,0,0,0-3.97-2.749,20.66,20.66,0,0,0-3.716-1.7l3.628-10.78a32.915,32.915,0,0,1,5.743,2.618,41.812,41.812,0,0,1,5.486,3.793,50.85,50.85,0,0,1,4.968,4.638,58.083,58.083,0,0,1,4.422,5.329,63.215,63.215,0,0,1,6.983,12.093l-.922.407-9.494,4.15A51.873,51.873,0,0,0,464.813,338.958Zm-1.332,42.763a18.862,18.862,0,0,0,3.839-.384,17.146,17.146,0,0,0,9.475-5.471,19.62,19.62,0,0,0,3.075-4.714,24.424,24.424,0,0,0,1.816-5.586,32.275,32.275,0,0,0,.6-6.288,41.537,41.537,0,0,0-.537-6.642l-11.225,1.8a30.347,30.347,0,0,1,.4,4.814,20.606,20.606,0,0,1-.384,4.069,13.219,13.219,0,0,1-.956,3.006,8.315,8.315,0,0,1-1.286,1.992,5.829,5.829,0,0,1-3.267,1.889,8.322,8.322,0,0,1-2.361.111,12.921,12.921,0,0,1-3.064-.672,20.887,20.887,0,0,1-3.7-1.708,30.04,30.04,0,0,1-3.969-2.76,39.749,39.749,0,0,1-3.843-3.6,47.847,47.847,0,0,1-3.559-4.3,51.536,51.536,0,0,1-3.133-4.8,52.77,52.77,0,0,1-2.591-5.114,48.166,48.166,0,0,1-1.939-5.225,39.91,39.91,0,0,1-1.2-5.133,30.328,30.328,0,0,1-.407-4.814,20.659,20.659,0,0,1,.372-4.062,13.2,13.2,0,0,1,.948-2.991,8.3,8.3,0,0,1,1.282-1.992,5.928,5.928,0,0,1,1.463-1.205,6.1,6.1,0,0,1,1.8-.676l.069-11.133h-.63a12.2,12.2,0,0,0-4.054.645,17.045,17.045,0,0,0-2.856,1.313,17.349,17.349,0,0,0-4.292,3.509,19.784,19.784,0,0,0-3.075,4.722,24.674,24.674,0,0,0-1.8,5.586,32.326,32.326,0,0,0-.587,6.285,41.794,41.794,0,0,0,.549,6.63,50.2,50.2,0,0,0,1.547,6.615,58.482,58.482,0,0,0,2.4,6.492,63.554,63.554,0,0,0,6.979,12.089,59.3,59.3,0,0,0,4.419,5.325,50.328,50.328,0,0,0,4.956,4.649,41.591,41.591,0,0,0,5.471,3.793,32.139,32.139,0,0,0,5.735,2.63,24.407,24.407,0,0,0,5.74,1.232C462.295,381.694,462.894,381.721,463.481,381.721Z" transform="translate(-357.754 -243.286)" fill="url(#linear-gradient-21)"/>
        <path id="パス_3812" data-name="パス 3812" d="M546.282,372.663,408.165,292.922c-.822-.476-1.5-.088-1.5.864v.818l137.449,79.357a3.33,3.33,0,0,1,1.5,2.6v84.6l.664.384c.825.476,1.5.085,1.5-.868V375.262A3.33,3.33,0,0,0,546.282,372.663Z" transform="translate(-406.668 -292.719)" fill="url(#linear-gradient-22)"/>
        <path id="パス_3813" data-name="パス 3813" d="M439.883,317.119v5.925l-30.789-17.776v-6.16Z" transform="translate(-399.781 -274.582)" fill="#edf3fa"/>
        <path id="パス_3814" data-name="パス 3814" d="M460.283,333.454v5.926l-51.189-29.239v-6.16Z" transform="translate(-399.781 -260.745)" fill="#edf3fa"/>
        <path id="パス_3815" data-name="パス 3815" d="M460.283,337.516v5.925L409.094,314.2v-6.16Z" transform="translate(-399.781 -249.215)" fill="#edf3fa"/>
        <path id="パス_3816" data-name="パス 3816" d="M460.283,341.306v5.925l-51.189-29.238v-6.16Z" transform="translate(-399.781 -238.453)" fill="#edf3fa"/>
      </g>
      <g id="グループ_472" data-name="グループ 472" transform="translate(202.156 242.038)">
        <path id="パス_3817" data-name="パス 3817" d="M521.474,461.62c0,4.653-3.275,6.519-7.275,4.146l-84.885-50.284a16.73,16.73,0,0,1-7.367-12.769l-.764-69.974c-.054-4.653,3.19-6.53,7.2-4.173l85.8,50.376a16.406,16.406,0,0,1,7.294,12.742Z" transform="translate(-421.183 -327.549)" fill="#3c5185"/>
        <path id="パス_3818" data-name="パス 3818" d="M521,414.837V366.154a7.3,7.3,0,0,0-1.367-2.442c-1.927-2.138-5.16-2.649-7.978-2.081s-5.359,2.035-7.916,3.348a32.51,32.51,0,0,1-11.663,3.912c-4.112.384-8.5-.626-11.5-3.467-3.052-2.891-4.607-7.528-8.5-9.126-3.455-1.42-7.317.154-10.883,1.267-7.866,2.461-17.433,2.269-23.188-3.628-3.363-3.447-5.459-8.749-10.131-9.916a7.285,7.285,0,0,0-.856-.157,9.366,9.366,0,0,0-5.674,1.332l.127,11.348a16.73,16.73,0,0,0,7.367,12.769l7.2,4.265c4.806,2.691,9.555,5.5,14.289,8.319l40.079,23.887L513.728,419.6a6.994,6.994,0,0,0,2.814,1.006,3.193,3.193,0,0,0,.971-.081c1.946-.522,2.822-2.749,3.294-4.707C520.884,415.493,520.934,415.163,521,414.837Z" transform="translate(-420.711 -281.379)" fill="url(#linear-gradient-5)"/>
        <path id="パス_3819" data-name="パス 3819" d="M518.344,463.312v-69.94a16.429,16.429,0,0,0-7.294-12.742l-85.8-50.376a5.986,5.986,0,0,0-3.854-.964c1.2-1.954,3.613-2.361,6.4-.726l85.795,50.376a16.406,16.406,0,0,1,7.294,12.742v69.936c0,2.987-1.351,4.818-3.379,5.121A6.444,6.444,0,0,0,518.344,463.312Z" transform="translate(-420.586 -327.548)" fill="url(#linear-gradient-24)"/>
      </g>
      <g id="グループ_473" data-name="グループ 473" transform="translate(41.969 145.853)">
        <path id="パス_3820" data-name="パス 3820" d="M382.079,306.316a1.2,1.2,0,0,0,.188-.714,1.648,1.648,0,0,0-.215-.775,1.25,1.25,0,0,0-.5-.537c-.373-.2-.71-.031-1.014.518l-1.079-1.417a1.829,1.829,0,0,1,.86-.841,1.513,1.513,0,0,1,1.228.223,3.687,3.687,0,0,1,1.355,1.382,4.2,4.2,0,0,1,.641,2.111,2.242,2.242,0,0,1-.188,1.063,3.674,3.674,0,0,1-.794,1l-1.01.937,2.315,1.248.057,1.608-4.135-2.223-.05-1.336,1.635-1.49A4.7,4.7,0,0,0,382.079,306.316Z" transform="translate(-379.457 -302.494)" fill="#fff"/>
        <path id="パス_3821" data-name="パス 3821" d="M383.4,311.866a4.214,4.214,0,0,1-1.858-2.111,9,9,0,0,1-.71-3.355,4.572,4.572,0,0,1,.5-2.7c.376-.541.971-.591,1.781-.157a4.2,4.2,0,0,1,1.854,2.115,8.884,8.884,0,0,1,.718,3.352,4.553,4.553,0,0,1-.5,2.7C384.8,312.254,384.211,312.3,383.4,311.866Zm-1.075-6.565a4.356,4.356,0,0,0-.211,1.8,7.463,7.463,0,0,0,.345,2.1,2.046,2.046,0,0,0,.887,1.2c.4.211.676.123.841-.269a4.367,4.367,0,0,0,.211-1.8,7.467,7.467,0,0,0-.346-2.1,2.04,2.04,0,0,0-.891-1.2A.524.524,0,0,0,382.322,305.3Z" transform="translate(-375.584 -300.343)" fill="#fff"/>
        <path id="パス_3822" data-name="パス 3822" d="M382.239,303.818l2.373,1.275.284,8.047-1.259-.676-.226-6.515-1.117-.6Z" transform="translate(-371.559 -298.737)" fill="#fff"/>
        <path id="パス_3823" data-name="パス 3823" d="M383.829,304.644a1.431,1.431,0,0,1,1.428.146,4.026,4.026,0,0,1,1.478,1.417,3.7,3.7,0,0,1,.63,1.87,1.5,1.5,0,0,1-.461,1.313,4.7,4.7,0,0,1,.795,2.419,1.306,1.306,0,0,1-2.15,1.305,4.664,4.664,0,0,1-2.326-3.712c-.027-.837.188-1.378.66-1.635a4.042,4.042,0,0,1-.587-1.881A1.25,1.25,0,0,1,383.829,304.644ZM384.847,311a2.008,2.008,0,0,0,.649.614.726.726,0,0,0,.63.073c.192-.073.28-.284.269-.63a1.787,1.787,0,0,0-.311-.948,1.964,1.964,0,0,0-.66-.622.688.688,0,0,0-.633-.073c-.188.081-.269.3-.261.641A1.741,1.741,0,0,0,384.847,311Zm-.042-3.47a1.584,1.584,0,0,0,.568.572.511.511,0,0,0,.549.027.571.571,0,0,0,.215-.553,1.7,1.7,0,0,0-.257-.814,1.592,1.592,0,0,0-.572-.58.526.526,0,0,0-.553-.027.6.6,0,0,0-.211.56A1.676,1.676,0,0,0,384.8,307.531Z" transform="translate(-368.772 -296.768)" fill="#fff"/>
      </g>
      <g id="グループ_474" data-name="グループ 474" transform="translate(73.48 160.005)">
        <path id="パス_3824" data-name="パス 3824" d="M390.287,310.006a1.207,1.207,0,0,0,.188-.718,1.673,1.673,0,0,0-.215-.775,1.293,1.293,0,0,0-.5-.537c-.372-.2-.71-.027-1.013.518l-1.079-1.417a1.865,1.865,0,0,1,.86-.841,1.518,1.518,0,0,1,1.229.226,3.649,3.649,0,0,1,1.355,1.378,4.213,4.213,0,0,1,.641,2.111,2.238,2.238,0,0,1-.188,1.063,3.549,3.549,0,0,1-.795,1l-1.01.937,2.315,1.252.058,1.609L388,313.587l-.05-1.332,1.635-1.493A4.7,4.7,0,0,0,390.287,310.006Z" transform="translate(-387.665 -306.181)" fill="#fff"/>
        <path id="パス_3825" data-name="パス 3825" d="M391.6,315.554a4.23,4.23,0,0,1-1.858-2.112,9,9,0,0,1-.71-3.355,4.564,4.564,0,0,1,.5-2.7q.565-.812,1.781-.157a4.2,4.2,0,0,1,1.854,2.112,8.888,8.888,0,0,1,.718,3.355,4.56,4.56,0,0,1-.5,2.7Q392.824,316.207,391.6,315.554Zm-1.075-6.565a4.321,4.321,0,0,0-.211,1.793,7.468,7.468,0,0,0,.345,2.1,2.056,2.056,0,0,0,.887,1.2c.4.207.676.119.841-.273a4.345,4.345,0,0,0,.211-1.793,7.445,7.445,0,0,0-.345-2.1,2.04,2.04,0,0,0-.891-1.205A.525.525,0,0,0,390.53,308.99Z" transform="translate(-383.792 -304.028)" fill="#fff"/>
        <path id="パス_3826" data-name="パス 3826" d="M390.447,307.5l2.373,1.275.284,8.047-1.259-.676-.227-6.515-1.117-.6Z" transform="translate(-379.767 -302.421)" fill="#fff"/>
        <path id="パス_3827" data-name="パス 3827" d="M393.409,315.1c.368.2.645.184.833-.042a2.03,2.03,0,0,0,.311-1.171,1.311,1.311,0,0,1-1.136-.123,3.557,3.557,0,0,1-1.4-1.486,4.969,4.969,0,0,1-.622-2.257,1.9,1.9,0,0,1,.522-1.643,1.3,1.3,0,0,1,1.463.058,3.61,3.61,0,0,1,1.09.906,5.029,5.029,0,0,1,.756,1.3,9.859,9.859,0,0,1,.587,3.125,7.613,7.613,0,0,1-.123,1.831,2.107,2.107,0,0,1-.491,1.033,1.315,1.315,0,0,1-1.635.065,3.474,3.474,0,0,1-.795-.591,4.767,4.767,0,0,1-.584-.641c-.131-.177-.284-.4-.457-.668l.61-.914c.042.069.092.153.161.261a4.043,4.043,0,0,0,.384.5A1.869,1.869,0,0,0,393.409,315.1Zm.081-2.8a.59.59,0,0,0,.637.042.745.745,0,0,0,.238-.676,2.294,2.294,0,0,0-.288-1.014,1.6,1.6,0,0,0-.641-.7.5.5,0,0,0-.606-.008.874.874,0,0,0-.207.706,2.381,2.381,0,0,0,.25.975A1.44,1.44,0,0,0,393.49,312.3Z" transform="translate(-377.074 -300.506)" fill="#fff"/>
      </g>
      <g id="グループ_475" data-name="グループ 475" transform="translate(110.431 147.528)">
        <path id="パス_3828" data-name="パス 3828" d="M399.912,306.756a1.208,1.208,0,0,0,.188-.718,1.675,1.675,0,0,0-.215-.776,1.294,1.294,0,0,0-.5-.537c-.372-.2-.71-.027-1.013.518l-1.079-1.417a1.866,1.866,0,0,1,.86-.841,1.519,1.519,0,0,1,1.229.226,3.647,3.647,0,0,1,1.355,1.378,4.211,4.211,0,0,1,.641,2.111,2.237,2.237,0,0,1-.188,1.063,3.55,3.55,0,0,1-.795,1l-1.01.937,2.315,1.252.058,1.609-4.135-2.227-.05-1.332,1.635-1.493A4.707,4.707,0,0,0,399.912,306.756Z" transform="translate(-397.29 -302.931)" fill="#fff"/>
        <path id="パス_3829" data-name="パス 3829" d="M401.23,312.3a4.229,4.229,0,0,1-1.858-2.112,8.994,8.994,0,0,1-.71-3.355,4.563,4.563,0,0,1,.5-2.7q.564-.812,1.781-.157a4.2,4.2,0,0,1,1.854,2.111,8.889,8.889,0,0,1,.718,3.355,4.561,4.561,0,0,1-.5,2.7Q402.449,312.957,401.23,312.3Zm-1.075-6.565a4.323,4.323,0,0,0-.211,1.793,7.468,7.468,0,0,0,.346,2.1,2.056,2.056,0,0,0,.887,1.2c.4.207.676.119.841-.273a4.346,4.346,0,0,0,.211-1.793,7.449,7.449,0,0,0-.346-2.1,2.04,2.04,0,0,0-.891-1.205A.525.525,0,0,0,400.155,305.74Z" transform="translate(-393.417 -300.778)" fill="#fff"/>
        <path id="パス_3830" data-name="パス 3830" d="M402.737,308.276a1.185,1.185,0,0,0,.192-.714,1.7,1.7,0,0,0-.215-.776,1.234,1.234,0,0,0-.507-.537c-.372-.2-.706-.027-1.014.518l-1.075-1.42a1.849,1.849,0,0,1,.856-.837,1.507,1.507,0,0,1,1.232.223,3.724,3.724,0,0,1,1.359,1.382,4.271,4.271,0,0,1,.637,2.111,2.272,2.272,0,0,1-.192,1.067,3.525,3.525,0,0,1-.795,1l-1.01.937,2.323,1.248.054,1.609-4.139-2.223-.046-1.336,1.635-1.49A4.631,4.631,0,0,0,402.737,308.276Z" transform="translate(-389.258 -298.612)" fill="#fff"/>
        <path id="パス_3831" data-name="パス 3831" d="M404.061,313.824a4.238,4.238,0,0,1-1.862-2.111,9.147,9.147,0,0,1-.71-3.351,4.668,4.668,0,0,1,.5-2.7c.38-.541.975-.591,1.785-.157a4.256,4.256,0,0,1,1.858,2.115,9.054,9.054,0,0,1,.71,3.351,4.58,4.58,0,0,1-.5,2.7C405.462,314.212,404.871,314.258,404.061,313.824Zm-1.075-6.565a4.3,4.3,0,0,0-.211,1.8,7.331,7.331,0,0,0,.345,2.1,2.02,2.02,0,0,0,.891,1.2.518.518,0,0,0,.833-.269,4.312,4.312,0,0,0,.211-1.8,7.339,7.339,0,0,0-.345-2.1,2.041,2.041,0,0,0-.887-1.2A.524.524,0,0,0,402.986,307.259Z" transform="translate(-385.388 -296.459)" fill="#fff"/>
      </g>
      <g id="グループ_476" data-name="グループ 476" transform="translate(145.7 203.818)">
        <path id="パス_3832" data-name="パス 3832" d="M409.1,321.42a1.21,1.21,0,0,0,.192-.718,1.7,1.7,0,0,0-.219-.779,1.306,1.306,0,0,0-.5-.534c-.369-.2-.706-.027-1.01.518l-1.083-1.417a1.884,1.884,0,0,1,.86-.841,1.5,1.5,0,0,1,1.229.226,3.682,3.682,0,0,1,1.359,1.378,4.276,4.276,0,0,1,.641,2.111,2.236,2.236,0,0,1-.192,1.063,3.428,3.428,0,0,1-.795,1l-1.01.937,2.319,1.248.057,1.612L406.807,325l-.046-1.332,1.635-1.5A4.5,4.5,0,0,0,409.1,321.42Z" transform="translate(-406.477 -317.593)" fill="#fff"/>
        <path id="パス_3833" data-name="パス 3833" d="M410.418,326.967a4.263,4.263,0,0,1-1.862-2.115,8.958,8.958,0,0,1-.707-3.352,4.579,4.579,0,0,1,.5-2.7c.372-.541.971-.587,1.777-.153a4.2,4.2,0,0,1,1.858,2.111,8.872,8.872,0,0,1,.714,3.352,4.581,4.581,0,0,1-.5,2.7Q411.637,327.616,410.418,326.967Zm-1.079-6.565a4.345,4.345,0,0,0-.207,1.793,7.253,7.253,0,0,0,.346,2.092,2.022,2.022,0,0,0,.887,1.205c.4.211.676.119.841-.273a4.37,4.37,0,0,0,.207-1.8,7.42,7.42,0,0,0-.342-2.092,2.018,2.018,0,0,0-.894-1.2A.523.523,0,0,0,409.339,320.4Z" transform="translate(-402.602 -315.44)" fill="#fff"/>
        <path id="パス_3834" data-name="パス 3834" d="M411.921,322.939a1.166,1.166,0,0,0,.192-.714,1.676,1.676,0,0,0-.215-.779,1.261,1.261,0,0,0-.5-.534c-.373-.2-.707-.027-1.014.518l-1.075-1.417a1.834,1.834,0,0,1,.852-.841,1.505,1.505,0,0,1,1.236.226,3.675,3.675,0,0,1,1.355,1.378,4.222,4.222,0,0,1,.637,2.111,2.2,2.2,0,0,1-.192,1.063,3.413,3.413,0,0,1-.795,1l-1.006.937,2.319,1.244.058,1.612-4.139-2.223-.046-1.336,1.635-1.49A4.742,4.742,0,0,0,411.921,322.939Z" transform="translate(-398.442 -313.273)" fill="#fff"/>
        <path id="パス_3835" data-name="パス 3835" d="M410.582,319.629l2.373,1.274.28,8.047-1.259-.676-.227-6.515-1.113-.6Z" transform="translate(-394.823 -311.814)" fill="#fff"/>
      </g>
      <g id="グループ_477" data-name="グループ 477">
        <path id="パス_3836" data-name="パス 3836" d="M509.975,386.8c0,6.561-4.618,9.194-10.265,5.851L380,321.73c-5.643-3.344-10.319-11.448-10.392-18.009l-1.079-31.895c-.069-6.561,4.5-9.214,10.158-5.889l121,71.049c5.659,3.321,10.289,11.406,10.289,17.971Z" transform="translate(-368.525 -264.502)" fill="#3c5185"/>
        <path id="パス_3837" data-name="パス 3837" d="M505.55,389.181V357.34c0-6.561-4.63-14.65-10.289-17.97l-121-71.049a8.474,8.474,0,0,0-5.436-1.359c1.689-2.757,5.091-3.332,9.014-1.025l121,71.049c5.659,3.321,10.289,11.406,10.289,17.967V386.8c0,4.215-1.912,6.8-4.768,7.225A9.087,9.087,0,0,0,505.55,389.181Z" transform="translate(-367.678 -264.501)" fill="url(#linear-gradient-25)"/>
        <path id="パス_3838" data-name="パス 3838" d="M490.035,338.5v4.622L371.417,274.8V270Z" transform="translate(-360.315 -248.904)" fill="#edf3fa"/>
        <path id="パス_3839" data-name="パス 3839" d="M490.035,341.864v4.622L371.417,278.161v-4.8Z" transform="translate(-360.315 -239.365)" fill="#edf3fa"/>
        <path id="パス_3840" data-name="パス 3840" d="M490.035,345.224v4.622L371.417,281.521v-4.8Z" transform="translate(-360.315 -229.826)" fill="#edf3fa"/>
      </g>
    </g>
    <g id="グループ_501" data-name="グループ 501" transform="translate(325.216 384.254)">
      <path id="パス_3841" data-name="パス 3841" d="M309.937,348.242v5.075a4.015,4.015,0,0,0,1.908,3.417l15.429,9.536a5,5,0,0,0,5.221.019l4.722-2.676a2.979,2.979,0,0,0,1.513-2.6l-.012-2.914a2.006,2.006,0,0,1-1.6-.357l-10.266-6.223v-3.275Z" transform="translate(-281.321 -146.514)" fill="#3c5185"/>
      <path id="パス_3842" data-name="パス 3842" d="M309.937,347.5v5.075A4.021,4.021,0,0,0,311.845,356l15.429,9.532a5,5,0,0,0,5.221.019l4.626-2.81a3.355,3.355,0,0,0,0-5.739l-10.266-6.219V347.5Z" transform="translate(-281.321 -148.606)" fill="#5d7dbe"/>
      <g id="グループ_479" data-name="グループ 479" transform="translate(39.016 204.189)">
        <path id="パス_3843" data-name="パス 3843" d="M312.646,353.333v-1.022l5.935-3.428.013.931Z" transform="translate(-312.646 -348.883)" fill="#fff"/>
      </g>
      <g id="グループ_480" data-name="グループ 480" transform="translate(41.253 206.224)">
        <path id="パス_3844" data-name="パス 3844" d="M313.229,353.815v-.975l5.936-3.427.035.868Z" transform="translate(-313.229 -349.413)" fill="#fff"/>
      </g>
      <g id="グループ_481" data-name="グループ 481" transform="translate(44.221 208.307)">
        <path id="パス_3845" data-name="パス 3845" d="M314,354.362v-.979l5.936-3.427-.031.974Z" transform="translate(-314.002 -349.955)" fill="#fff"/>
      </g>
      <ellipse id="楕円形_56" data-name="楕円形 56" cx="8.467" cy="4.888" rx="8.467" ry="4.888" transform="translate(28.607 194.012)" fill="#3c5185"/>
      <path id="パス_3846" data-name="パス 3846" d="M312.316,352.166c-2.173-1.251-2.173-3.305,0-4.561a8.782,8.782,0,0,1,7.9,0c2.173,1.255,2.173,3.309,0,4.561A8.758,8.758,0,0,1,312.316,352.166Z" transform="translate(-279.193 -150.986)" fill="#fff"/>
      <g id="グループ_482" data-name="グループ 482" transform="translate(33.127 104.029)">
        <path id="パス_3847" data-name="パス 3847" d="M315.07,420.439a3.957,3.957,0,0,1-3.958-3.954V326.751a3.956,3.956,0,1,1,7.912,0v89.734A3.953,3.953,0,0,1,315.07,420.439Z" transform="translate(-311.112 -322.793)" fill="#f2b1b5"/>
      </g>
      <g id="グループ_484" data-name="グループ 484" transform="translate(20.823 95.46)">
        <g id="グループ_483" data-name="グループ 483">
          <path id="パス_3848" data-name="パス 3848" d="M324.169,423.482c-3.643,0-5.114-2.952-5.114-6.592l-.465-27.388-10.684-48.975c0-3.639,12.619-19.967,16.262-19.967a6.593,6.593,0,0,1,6.592,6.592l-.276,61.605-1.205,28.133C329.279,420.53,327.809,423.482,324.169,423.482Z" transform="translate(-307.907 -320.561)" fill="url(#linear-gradient-6)"/>
        </g>
      </g>
      <g id="グループ_485" data-name="グループ 485" transform="translate(36.668 39.351)">
        <path id="パス_3849" data-name="パス 3849" d="M329.954,378.536a3.956,3.956,0,0,1-3.766-2.753l-10.469-32.712-3.659-32.728a3.954,3.954,0,1,1,7.859-.879l3.574,31.945,10.227,31.968a3.954,3.954,0,0,1-2.561,4.971A4,4,0,0,1,329.954,378.536Z" transform="translate(-312.034 -305.946)" fill="#f2b1b5"/>
      </g>
      <g id="グループ_486" data-name="グループ 486" transform="translate(37.236 38.789)">
        <path id="パス_3850" data-name="パス 3850" d="M318.915,332.2a3.952,3.952,0,0,1-4.162-3.409l-2.534-18.5a3.956,3.956,0,0,1,7.839-1.075l2.53,18.5a3.956,3.956,0,0,1-3.382,4.457C319.11,332.188,319.01,332.2,318.915,332.2Z" transform="translate(-312.182 -305.799)" fill="url(#linear-gradient-27)"/>
      </g>
      <path id="パス_3851" data-name="パス 3851" d="M304.643,352.651v5.075a4.026,4.026,0,0,0,1.9,3.421l15.429,9.532a5,5,0,0,0,5.221.019l4.722-2.672a2.974,2.974,0,0,0,1.513-2.6l-.011-2.918a2,2,0,0,1-1.6-.357l-10.269-6.219v-3.279Z" transform="translate(-296.351 -133.996)" fill="#3c5185"/>
      <path id="パス_3852" data-name="パス 3852" d="M304.643,351.915v5.075a4.02,4.02,0,0,0,1.9,3.417l15.429,9.536a5,5,0,0,0,5.221.019l4.626-2.81a3.357,3.357,0,0,0,0-5.739l-10.269-6.223v-3.275Z" transform="translate(-296.351 -136.086)" fill="#5d7dbe"/>
      <g id="グループ_487" data-name="グループ 487" transform="translate(18.69 221.118)">
        <path id="パス_3853" data-name="パス 3853" d="M307.352,357.743V356.72l5.935-3.427.013.931Z" transform="translate(-307.352 -353.293)" fill="#fff"/>
      </g>
      <g id="グループ_488" data-name="グループ 488" transform="translate(20.927 223.152)">
        <path id="パス_3854" data-name="パス 3854" d="M307.934,358.224v-.975l5.936-3.427.036.868Z" transform="translate(-307.934 -353.823)" fill="#fff"/>
      </g>
      <g id="グループ_489" data-name="グループ 489" transform="translate(23.895 225.235)">
        <path id="パス_3855" data-name="パス 3855" d="M308.707,358.771v-.979l5.936-3.428-.031.975Z" transform="translate(-308.707 -354.365)" fill="#fff"/>
      </g>
      <ellipse id="楕円形_57" data-name="楕円形 57" cx="8.467" cy="4.888" rx="8.467" ry="4.888" transform="translate(8.281 210.941)" fill="#3c5185"/>
      <path id="パス_3856" data-name="パス 3856" d="M307.019,356.578c-2.169-1.255-2.169-3.305,0-4.561a8.757,8.757,0,0,1,7.9,0c2.173,1.255,2.173,3.305,0,4.561A8.758,8.758,0,0,1,307.019,356.578Z" transform="translate(-294.224 -138.469)" fill="#fff"/>
      <path id="パス_3857" data-name="パス 3857" d="M335.978,300.963l-.887-1.589a3.786,3.786,0,0,0-3.467-2.234,11.1,11.1,0,0,0-4.246.937q-3.726,1.353-7.459,2.71c-4.826,1.755-10.3,4.181-11.617,9.145-.918,3.447.507,7.29-.814,10.607-.441,1.113-1.171,2.1-1.57,3.221-1.06,2.971.345,6.238,2.065,8.88a5.026,5.026,0,0,0,2.111,2.077c1.586.649,3.39-.353,4.53-1.635s1.939-2.868,3.263-3.954c2.088-1.712,5.091-1.877,7.294-3.436,4.338-3.079,3.927-10.147,8.05-13.506,1.3-1.056,2.987-1.685,3.931-3.064C338.8,306.722,337.394,303.5,335.978,300.963Z" transform="translate(-293.772 -291.613)" fill="url(#linear-gradient-5)"/>
      <g id="グループ_490" data-name="グループ 490" transform="translate(12.914 122.18)">
        <path id="パス_3858" data-name="パス 3858" d="M309.8,424.142a3.954,3.954,0,0,1-3.954-3.954V331.475a3.954,3.954,0,0,1,7.909,0v88.712A3.953,3.953,0,0,1,309.8,424.142Z" transform="translate(-305.847 -327.521)" fill="#f2b1b5"/>
      </g>
      <path id="パス_3859" data-name="パス 3859" d="M341.986,367.715,340.872,307.2,306,326.464l3.482,27.445-3.6,21.6-.192,1.612a5.208,5.208,0,0,0-1.271,2.012,11.434,11.434,0,0,0-.349,1.4,22.958,22.958,0,0,0,1.451,13.191l1.847,4.4,2.541,37.941.922,34.931c0,3.444,1.04,6.519,4.465,6.845,3.931.372,5.759-2.706,5.759-6.561l2.895-34.175,6.622-51.9,1.7-.914A18.432,18.432,0,0,0,341.986,367.715Z" transform="translate(-299.081 -263.022)" fill="url(#linear-gradient-6)"/>
      <g id="グループ_491" data-name="グループ 491" transform="translate(55.78 47.467)">
        <path id="パス_3860" data-name="パス 3860" d="M318.4,323.582a1.114,1.114,0,0,0,.541-.261L334.2,310.1a1.163,1.163,0,1,0-1.524-1.758l-15.264,13.218a1.161,1.161,0,0,0,.979,2.019Z" transform="translate(-317.013 -308.06)" fill="#3c5185"/>
      </g>
      <path id="パス_3861" data-name="パス 3861" d="M304.055,324.916a12.661,12.661,0,0,1,5.709-9.889L327.2,304.965l9.306.134a6.738,6.738,0,0,1,4.91,2.23h0a6.728,6.728,0,0,1,1.72,4.5v6.135l2.549,9.674a6.227,6.227,0,0,1-.967,5.221l-1.582,2.2L343.524,377c-5.951-2.937-30.639,19.214-39.419,13.318-1.083-.73-.05-5.225-.05-5.225a10.526,10.526,0,0,1,.192-1.993l2.607-13.625a74.709,74.709,0,0,0,.165-17.859Z" transform="translate(-299.283 -269.379)" fill="url(#linear-gradient-30)"/>
      <g id="グループ_492" data-name="グループ 492" transform="translate(19.728 21.589)">
        <path id="パス_3862" data-name="パス 3862" d="M312.206,326.753a4.584,4.584,0,0,1-4.584-4.588V305.907a4.584,4.584,0,1,1,9.168,0v16.258A4.584,4.584,0,0,1,312.206,326.753Z" transform="translate(-307.622 -301.319)" fill="#f2b1b5"/>
      </g>
      <path id="長方形_80" data-name="長方形 80" d="M0,0H19.538a0,0,0,0,1,0,0V22.235a3.255,3.255,0,0,1-3.255,3.255H0a0,0,0,0,1,0,0V0A0,0,0,0,1,0,0Z" transform="translate(21.084 9.569)" fill="#f2b1b5"/>
      <path id="パス_3863" data-name="パス 3863" d="M338.956,325.233l-19.387,13.824a.619.619,0,0,1-.58.084.61.61,0,0,1-.411-.415l-8.461-26.639c-.664-2.081-5.014-1.62-5.014-1.62l5.935,30.655A8.557,8.557,0,0,0,324.16,345.5L339.017,334.9Z" transform="translate(-295.045 -253.878)" fill="#5d7dbe" opacity="0.25"/>
      <g id="グループ_493" data-name="グループ 493" transform="translate(9.983 52.154)">
        <path id="パス_3864" data-name="パス 3864" d="M321.878,347.035a8.528,8.528,0,0,1-8.146-5.962l-8.461-26.639a3.954,3.954,0,1,1,7.536-2.4l8.461,26.639a.628.628,0,0,0,.415.419.609.609,0,0,0,.58-.088l30.808-21.963a3.955,3.955,0,1,1,4.591,6.442L326.853,345.45A8.582,8.582,0,0,1,321.878,347.035Z" transform="translate(-305.083 -309.28)" fill="#f2b1b5"/>
      </g>
      <g id="グループ_494" data-name="グループ 494" transform="translate(9.53 51.292)">
        <path id="パス_3865" data-name="パス 3865" d="M315.337,336.878a4.219,4.219,0,0,1-4.016-2.941l-6.158-19.387A4.217,4.217,0,0,1,313.2,312l6.158,19.387a4.224,4.224,0,0,1-4.023,5.494Z" transform="translate(-304.965 -309.056)" fill="url(#linear-gradient-30)"/>
      </g>
      <path id="パス_3866" data-name="パス 3866" d="M315.727,346.753a8.708,8.708,0,0,0-.941.111,3.159,3.159,0,0,0-1.121.349,3.408,3.408,0,0,0-1.109,1.424c-.584,1.117-.8,2.3-1.4,3.39a7.878,7.878,0,0,0-1.232,3.375c-.081,2.042.864,4.127.518,6.142a4,4,0,0,0-1.835-1.278,5.9,5.9,0,0,1-3.923-5.079c-.465-2.929-.111-5.724-1.278-8.507a14.861,14.861,0,0,1-.553-8.58c.779-4.058,2.684-7.333,4.127-11.114,1.159-3.037.4-6.058,1.278-9.068.791-2.73,2.895-5.044,3.893-7.751,1.063-2.891,1.586-4.718,3.808-7.045,1.659-1.731,3.018-3.985,5.179-5.183,1.712-.948,3.421-.66,5.21-.96,1.843-.315,3.532-1.075,5.451-1.225a18.673,18.673,0,0,1,10.945,2.407c2.61,1.559,3.92,4.146,1.52,6.542-2.707,2.7-6,2.288-9.4,3.117a3.131,3.131,0,0,0-1.655.894,2.715,2.715,0,0,0-.53,2.1c.311,2.518,1.413,3.993-1.052,5.889-.979.756-2.127,1.275-3.113,2.023a4.492,4.492,0,0,0-1.831,2.795c-.188,1.014.085,2.089-.215,3.083s-1.206,1.5-1.708,2.376c-1.209,2.111-.288,4.941-1.428,7.091a6.472,6.472,0,0,0-.937,1.877,3.629,3.629,0,0,0,.683,2.28q.824,1.445,1.647,2.895a9.834,9.834,0,0,1,1.148,2.561,8,8,0,0,1,.058,2.772,10.169,10.169,0,0,1-.956,3.528,5.422,5.422,0,0,1-1.643,1.95c-1.083.768-1.513.361-2.338-.56-1.6-1.778-2.058-4.511-4.891-4.626C315.981,346.745,315.854,346.745,315.727,346.753Z" transform="translate(-302.483 -295.695)" fill="url(#linear-gradient-5)"/>
      <g id="グループ_495" data-name="グループ 495" transform="translate(18.412 0.012)">
        <path id="パス_3867" data-name="パス 3867" d="M329.131,298.154a18.465,18.465,0,0,0-10.116-2.442,18.127,18.127,0,0,1,8.638,2.442c2.607,1.559,3.92,4.146,1.516,6.542-2.7,2.7-6,2.288-9.394,3.117a3.118,3.118,0,0,0-1.655.895,2.716,2.716,0,0,0-.53,2.1c.307,2.515,1.413,3.993-1.052,5.889-.983.756-2.127,1.275-3.114,2.019a4.5,4.5,0,0,0-1.831,2.8c-.188,1.014.084,2.089-.215,3.083s-1.205,1.5-1.708,2.376c-1.209,2.111-.292,4.941-1.428,7.091a6.478,6.478,0,0,0-.941,1.877,3.657,3.657,0,0,0,.687,2.28q.823,1.445,1.647,2.895a9.825,9.825,0,0,1,1.148,2.561,8.09,8.09,0,0,1,.058,2.772,10.249,10.249,0,0,1-.956,3.528,5.4,5.4,0,0,1-1.647,1.95c-.065.046-.119.073-.18.111.472.38.91.422,1.662-.111a5.423,5.423,0,0,0,1.643-1.95,10.169,10.169,0,0,0,.956-3.528,8,8,0,0,0-.058-2.772,9.83,9.83,0,0,0-1.148-2.561q-.824-1.451-1.647-2.895a3.629,3.629,0,0,1-.683-2.28,6.563,6.563,0,0,1,.937-1.877c1.14-2.15.219-4.979,1.428-7.091.5-.875,1.413-1.394,1.708-2.376s.027-2.069.215-3.083a4.511,4.511,0,0,1,1.831-2.8c.987-.745,2.134-1.263,3.113-2.019,2.465-1.9,1.363-3.375,1.052-5.889a2.715,2.715,0,0,1,.53-2.1,3.132,3.132,0,0,1,1.655-.895c3.394-.829,6.691-.418,9.4-3.117C333.051,302.3,331.738,299.712,329.131,298.154Z" transform="translate(-307.279 -295.698)" fill="#fec55e"/>
      </g>
      <g id="グループ_496" data-name="グループ 496" transform="translate(59.541 57.573)">
        <path id="パス_3868" data-name="パス 3868" d="M320.018,316.181a1.206,1.206,0,0,0,.323-.53l.96-3.421a1.2,1.2,0,1,0-2.3-.68l-.964,3.425a1.2,1.2,0,0,0,1.977,1.205Z" transform="translate(-317.992 -310.692)" fill="#f2b1b5"/>
      </g>
      <g id="グループ_497" data-name="グループ 497" transform="translate(61.221 56.11)">
        <path id="パス_3869" data-name="パス 3869" d="M320.453,315.8a1.193,1.193,0,0,0,.322-.526l.96-3.424a1.2,1.2,0,0,0-2.3-.676l-.96,3.421a1.2,1.2,0,0,0,1.973,1.205Z" transform="translate(-318.43 -310.311)" fill="#f2b1b5"/>
      </g>
      <g id="グループ_498" data-name="グループ 498" transform="translate(61.566 55.24)">
        <path id="パス_3870" data-name="パス 3870" d="M320.444,320.256a1.145,1.145,0,0,0,.307-.5l2.326-8.208a1.139,1.139,0,0,0-2.184-.645l-2.326,8.212a1.137,1.137,0,0,0,1.877,1.144Z" transform="translate(-318.52 -310.085)" fill="#f2b1b5"/>
      </g>
      <g id="グループ_499" data-name="グループ 499" transform="translate(54.793 56.11)">
        <path id="パス_3871" data-name="パス 3871" d="M318.884,316.7a1.445,1.445,0,0,0,.545-.511l2.208-3.674a1.445,1.445,0,0,0-2.457-1.52l-2.207,3.674a1.443,1.443,0,0,0,1.912,2.031Z" transform="translate(-316.756 -310.311)" fill="#f2b1b5"/>
      </g>
      <g id="グループ_500" data-name="グループ 500" transform="translate(46.605 98.634)">
        <path id="パス_3872" data-name="パス 3872" d="M317.215,331.612a1.479,1.479,0,0,0,.284-.691l1.935-7.9a1.444,1.444,0,1,0-2.864-.372l-1.935,7.9a1.445,1.445,0,0,0,2.58,1.063Z" transform="translate(-314.623 -321.388)" fill="#f2b1b5"/>
      </g>
      <circle id="楕円形_58" data-name="楕円形 58" cx="3.317" cy="3.317" r="3.317" transform="translate(54.587 58.719)" fill="#f2b1b5"/>
    </g>
    <g id="グループ_525" data-name="グループ 525" transform="translate(393.6 633.487)">
      <g id="グループ_502" data-name="グループ 502" transform="translate(37.629 44.057)">
        <path id="パス_3873" data-name="パス 3873" d="M349.505,439.874a5.316,5.316,0,0,1-3.616-1.225,43.84,43.84,0,0,1-3.758-63.858l.983-1.04a5.319,5.319,0,0,1,7.724,7.313l-.987,1.04a33.207,33.207,0,0,0,2.841,48.368,5.318,5.318,0,0,1-3.186,9.4Z" transform="translate(-330.098 -372.092)" fill="#f2b1b5"/>
      </g>
      <g id="グループ_503" data-name="グループ 503" transform="translate(39.816 42.84)">
        <path id="パス_3874" data-name="パス 3874" d="M335.944,396.955a5.933,5.933,0,0,1-4.76-8.331,48.62,48.62,0,0,1,9.26-13.863l1.087-1.148a5.885,5.885,0,1,1,8.546,8.093l-1.086,1.152a36.732,36.732,0,0,0-7.052,10.584,5.87,5.87,0,0,1-5.993,3.513Z" transform="translate(-330.667 -371.775)" fill="#fff"/>
      </g>
      <path id="パス_3875" data-name="パス 3875" d="M345.561,410.37l-25.249,14.784-.012,2.576a6.54,6.54,0,0,0,3.129,5.613l4.837,2.971a4.2,4.2,0,0,0,4.38,0l19.6-11.467a6.392,6.392,0,0,0,3.067-5.459V416.47Z" transform="translate(-320.285 -219.362)" fill="#3c5185"/>
      <path id="パス_3876" data-name="パス 3876" d="M339.572,411.9l-16.612,9.6a5.52,5.52,0,0,0-.031,9.429l4.434,2.722a5.956,5.956,0,0,0,6.212.008l18.784-10.976a6.179,6.179,0,0,0-.161-10.646l-.526-.3A11.956,11.956,0,0,0,339.572,411.9Z" transform="translate(-320.296 -219.917)" fill="#3c5185"/>
      <g id="グループ_504" data-name="グループ 504" transform="translate(10.065 191.591)">
        <path id="パス_3877" data-name="パス 3877" d="M343.888,416.177a5.578,5.578,0,0,0-2.76-4.023l-.488-.276a11.046,11.046,0,0,0-4.1-1.355,7.9,7.9,0,0,0-2.925,1.052l-8.937,5.213a3.64,3.64,0,0,0-.023,6.219l2.925,1.793a3.93,3.93,0,0,0,4.1,0l10.373-6.116A4.029,4.029,0,0,0,343.888,416.177Z" transform="translate(-322.918 -410.522)" fill="#f2b1b5"/>
      </g>
      <path id="パス_3878" data-name="パス 3878" d="M351.3,413.495l-25.249,14.78-.011,2.576a6.555,6.555,0,0,0,3.129,5.617L334,439.435a4.2,4.2,0,0,0,4.38.008l19.6-11.467a6.392,6.392,0,0,0,3.067-5.459V419.6Z" transform="translate(-304 -210.49)" fill="#3c5185"/>
      <path id="パス_3879" data-name="パス 3879" d="M345.308,415.022,328.7,424.627a5.519,5.519,0,0,0-.031,9.429l4.434,2.718a5.948,5.948,0,0,0,6.212.008L358.1,425.805a6.177,6.177,0,0,0-.165-10.642l-.526-.3A11.965,11.965,0,0,0,345.308,415.022Z" transform="translate(-304.011 -211.046)" fill="#3c5185"/>
      <g id="グループ_505" data-name="グループ 505" transform="translate(32.087 203.588)">
        <path id="パス_3880" data-name="パス 3880" d="M349.622,419.3a5.578,5.578,0,0,0-2.76-4.023l-.488-.276a10.976,10.976,0,0,0-4.1-1.355,7.843,7.843,0,0,0-2.929,1.052l-8.937,5.213a3.639,3.639,0,0,0-.023,6.215l2.925,1.793a3.922,3.922,0,0,0,4.1.008l10.373-6.119A4.021,4.021,0,0,0,349.622,419.3Z" transform="translate(-328.654 -413.647)" fill="#f2b1b5"/>
      </g>
      <g id="グループ_507" data-name="グループ 507" transform="translate(20.696 155.738)">
        <g id="グループ_506" data-name="グループ 506">
          <path id="パス_3881" data-name="パス 3881" d="M331.008,446.265a5.32,5.32,0,0,1-5.321-5.317V406.5a5.321,5.321,0,1,1,10.642,0v34.444A5.32,5.32,0,0,1,331.008,446.265Z" transform="translate(-325.687 -401.183)" fill="#f2b1b5"/>
        </g>
      </g>
      <path id="パス_3882" data-name="パス 3882" d="M326.885,440.948V406.5a5.3,5.3,0,0,1,4.722-5.26,5.189,5.189,0,0,0-.6-.061,5.323,5.323,0,0,0-5.321,5.321v34.444a5.32,5.32,0,0,0,5.321,5.317,5.185,5.185,0,0,0,.6-.058A5.3,5.3,0,0,1,326.885,440.948Z" transform="translate(-304.991 -245.445)" fill="#ef9ea3" opacity="0.3"/>
      <g id="グループ_509" data-name="グループ 509" transform="translate(42.686 151.849)">
        <g id="グループ_508" data-name="グループ 508">
          <path id="パス_3883" data-name="パス 3883" d="M336.736,461.211a5.321,5.321,0,0,1-5.321-5.321v-50.4a5.321,5.321,0,0,1,10.642,0v50.4A5.321,5.321,0,0,1,336.736,461.211Z" transform="translate(-331.415 -400.17)" fill="#f2b1b5"/>
        </g>
      </g>
      <path id="パス_3884" data-name="パス 3884" d="M369.129,382.38,358.879,410.8l-18.059,9.671c-8.1,4.734-15.187,10.676-15.187,25.288,0,0-.361,4.062-.534,9.221-.319,9.529,30.6,12.922,37.381,15.663,3.467,1.405,4.415-15.978,4.415-15.978s.261-4.653,6.572-8.292l21.276-12.266a19.843,19.843,0,0,0,.031-34.386Z" transform="translate(-306.668 -298.827)" fill="url(#linear-gradient-6)"/>
      <path id="パス_3885" data-name="パス 3885" d="M327.491,454.984c.173-5.16.534-9.221.534-9.221,0-14.611,7.091-20.554,15.187-25.288l18.063-9.671,9.778-27.123-1.923-1.3L358.879,410.8l-18.059,9.671c-8.1,4.734-15.187,10.676-15.187,25.288,0,0-.361,4.062-.534,9.221-.319,9.529,30.6,12.922,37.381,15.663a1.089,1.089,0,0,0,1.267-.392C355.247,467.576,327.187,464.063,327.491,454.984Z" transform="translate(-306.668 -298.827)" fill="#ef9ea3" opacity="0.15"/>
      <g id="グループ_511" data-name="グループ 511" transform="translate(18.427 110.202)">
        <path id="パス_3886" data-name="パス 3886" d="M325.1,410.656v.779a1.153,1.153,0,0,0,.576,1L348.695,425.7a3.366,3.366,0,0,0,3.04,0l35.818-20.612a1.482,1.482,0,0,0,.741-1.286v-.3l-23.556-13.586a3.37,3.37,0,0,0-3.037,0Z" transform="translate(-325.096 -388.672)" fill="#d1e1f2"/>
        <path id="パス_3887" data-name="パス 3887" d="M325.724,410.453a.93.93,0,0,0,0,1.758l22.969,13.26a3.379,3.379,0,0,0,3.04,0l35.976-20.7a.927.927,0,0,0,0-1.755l-22.977-13.337a3.347,3.347,0,0,0-3.037,0Z" transform="translate(-325.095 -389.322)" fill="#fff"/>
        <path id="パス_3888" data-name="パス 3888" d="M326.937,406.507l22.529,13.106,28.414-16.345L355.351,390.1Z" transform="translate(-319.87 -387.106)" fill="url(#linear-gradient-5)"/>
        <g id="グループ_510" data-name="グループ 510" transform="translate(11.922 25.178)">
          <path id="パス_3889" data-name="パス 3889" d="M333.463,399.543a.452.452,0,0,1-.219-.058l-4.822-2.783a.44.44,0,0,1-.161-.6.434.434,0,0,1,.6-.158l4.826,2.783a.438.438,0,0,1,.157.6A.432.432,0,0,1,333.463,399.543Z" transform="translate(-328.201 -395.88)" fill="#3c5185"/>
        </g>
      </g>
      <path id="パス_3890" data-name="パス 3890" d="M332.228,369.365l.441-2.065a4.4,4.4,0,0,1,3.087-3.659,12.934,12.934,0,0,1,5.029-.4l9.194.472c5.951.307,12.845,1.136,16,6.2,2.192,3.513,1.916,8.262,4.507,11.494.868,1.083,2.012,1.923,2.841,3.04,2.181,2.933,1.735,7.037.722,10.55a5.825,5.825,0,0,1-1.635,3.021c-1.54,1.259-3.881.76-5.582-.273s-3.125-2.526-4.964-3.282c-2.9-1.19-6.284-.349-9.26-1.332-5.858-1.939-7.8-9.92-13.521-12.243-1.8-.73-3.885-.856-5.4-2.065C331.054,376.713,331.518,372.655,332.228,369.365Z" transform="translate(-287.991 -353.345)" fill="#3c5185"/>
      <path id="パス_3891" data-name="パス 3891" d="M380.89,392.26a30.033,30.033,0,0,0-11.133-13.087L354.5,370.366l-10.8.158a7.806,7.806,0,0,0-5.693,2.591h0c-1.286,1.432-2,4.76-2,6.688v5.643l-2.956,11.222a7.231,7.231,0,0,0,1.121,6.062l1.954,2.845a27.567,27.567,0,0,1,4.787,17.51L339.6,442.217c8.239,16.723,44.091,1.958,44.091,1.958C380.13,417.7,388.453,411.989,380.89,392.26Z" transform="translate(-284.737 -332.935)" fill="#fff"/>
      <path id="パス_3892" data-name="パス 3892" d="M342,442.217l1.317-19.134a27.563,27.563,0,0,0-4.783-17.51l-1.954-2.845a7.219,7.219,0,0,1-1.125-6.062l2.956-11.222V379.8c0-1.927.714-5.256,2-6.688a7.8,7.8,0,0,1,5.693-2.591l8.465-.123-.061-.035-10.8.158a7.806,7.806,0,0,0-5.693,2.591c-1.286,1.432-2,4.76-2,6.688v5.643l-2.956,11.222a7.231,7.231,0,0,0,1.121,6.062l1.954,2.845a27.567,27.567,0,0,1,4.787,17.51L339.6,442.217c3.14,6.377,10.292,8.169,17.944,7.954C350.83,449.957,344.807,447.922,342,442.217Z" transform="translate(-284.737 -332.935)" fill="#7ea7df" opacity="0.15"/>
      <g id="グループ_513" data-name="グループ 513" transform="translate(68.627 21.195)">
        <g id="グループ_512" data-name="グループ 512">
          <path id="パス_3893" data-name="パス 3893" d="M343.493,395.644a5.323,5.323,0,0,0,5.321-5.321V371.454a5.321,5.321,0,0,0-10.642,0v18.869A5.321,5.321,0,0,0,343.493,395.644Z" transform="translate(-338.172 -366.137)" fill="#f2b1b5"/>
        </g>
      </g>
      <g id="グループ_514" data-name="グループ 514" transform="translate(46.069 9.083)">
        <path id="長方形_81" data-name="長方形 81" d="M0,0H17.6A5.067,5.067,0,0,1,22.67,5.067V29.573a0,0,0,0,1,0,0H0a0,0,0,0,1,0,0V0A0,0,0,0,1,0,0Z" transform="translate(30.337 28.277) rotate(162.971)" fill="#f2b1b5"/>
      </g>
      <path id="パス_3894" data-name="パス 3894" d="M340.741,429.989l-3.2,2.4c6.039,1.044,13.16.077,19.26-1.351a51.43,51.43,0,0,0,6.891-53.877c-1.39-3-5.858,4.83-5.858,4.83C365.556,398.674,355.463,418.979,340.741,429.989Z" transform="translate(-271.342 -315.601)" fill="#7ea7df" opacity="0.33"/>
      <g id="グループ_515" data-name="グループ 515" transform="translate(61.805 55.212)">
        <path id="パス_3895" data-name="パス 3895" d="M342.322,445.534a5.392,5.392,0,0,1-4.119-9.394l10.323-9.2a35.47,35.47,0,0,0,7.164-43.869,5.4,5.4,0,0,1,9.367-5.356A46.314,46.314,0,0,1,355.7,435l-10.323,9.195A5.355,5.355,0,0,1,342.322,445.534Z" transform="translate(-336.395 -374.998)" fill="#f2b1b5"/>
      </g>
      <g id="グループ_516" data-name="グループ 516" transform="translate(78.988 53.046)">
        <path id="パス_3896" data-name="パス 3896" d="M352.511,402.725a6.372,6.372,0,0,1-5.97-5.332,41.291,41.291,0,0,0-4.83-13.425,6.37,6.37,0,0,1,11.06-6.323A53.758,53.758,0,0,1,359.06,395.1a6.425,6.425,0,0,1-6.549,7.628Z" transform="translate(-340.871 -374.433)" fill="#fff"/>
      </g>
      <path id="パス_3897" data-name="パス 3897" d="M380.444,425.438a11.283,11.283,0,0,1,4.657.933c1.359.591,2.772,1.478,4.208,1.109,1.939-.5,2.6-2.86,2.922-4.833a13.175,13.175,0,0,0,.157-5.152c-.526-2.219-2.134-3.985-3.394-5.885a20.708,20.708,0,0,1-3.317-9.279c-.253-2.491-.054-5.014-.326-7.505-.319-2.922-1.643-4.826-3.11-7.229-1.739-2.852-2.246-6.269-4.077-9.06-1.808-2.76-4.925-4.615-6.952-7.279-2.161-2.841-3.363-4.7-6.619-6.519-2.426-1.359-4.7-3.4-7.505-3.989-2.223-.472-4.019.43-6.108.7-2.15.28-4.28.008-6.461.5a21.657,21.657,0,0,0-11.329,6.388c-2.361,2.614-2.937,5.931.541,7.774,3.916,2.077,7.436.5,11.482.265a3.6,3.6,0,0,1,2.138.426c1.689,1.067.921,5.329,1.39,7.171a9.073,9.073,0,0,0,3.064,5.052,18.379,18.379,0,0,0,4.83,2.184,7.611,7.611,0,0,1,4.2,3.087c1.585,2.914-.445,6.446-.357,9.763a7.65,7.65,0,0,0,2.338,5.263,17.363,17.363,0,0,1,2.9,2.707,8.718,8.718,0,0,1,1.017,3.862,20.416,20.416,0,0,0,1.167,5.21,7.218,7.218,0,0,0,7.743,4.91c1.367-.073,2.7-.43,4.069-.541Q380.075,425.438,380.444,425.438Z" transform="translate(-289.14 -360.616)" fill="#3c5185"/>
      <g id="グループ_517" data-name="グループ 517" transform="translate(56.324 116.108)">
        <path id="パス_3898" data-name="パス 3898" d="M343.4,390.86l-7.958,7.4a1.475,1.475,0,0,0-.031,2.13h0a1.479,1.479,0,0,0,2.039.038l7.981-7.336Z" transform="translate(-334.967 -390.86)" fill="#f2b1b5"/>
      </g>
      <g id="グループ_518" data-name="グループ 518" transform="translate(59.895 113.229)">
        <path id="パス_3899" data-name="パス 3899" d="M349.228,390.11,337.3,391.857a1.64,1.64,0,0,0-1.374,1.927h0a1.641,1.641,0,0,0,1.839,1.317l11.909-1.666Z" transform="translate(-335.897 -390.11)" fill="#f2b1b5"/>
      </g>
      <g id="グループ_519" data-name="グループ 519" transform="translate(37.628 69.521)">
        <path id="パス_3900" data-name="パス 3900" d="M349.506,421.043a5.294,5.294,0,0,1-3.616-1.228A43.722,43.722,0,0,1,330.4,380.963c.345-2.918,2.227-2.277,5.156-1.916,2.914.342,5.751.242,5.405,3.156a33.146,33.146,0,0,0,11.728,29.442,5.316,5.316,0,0,1-3.186,9.4Z" transform="translate(-330.097 -378.725)" fill="#f2b1b5"/>
      </g>
      <g id="グループ_520" data-name="グループ 520" transform="translate(51.362 97.247)">
        <path id="パス_3901" data-name="パス 3901" d="M333.675,388.826l10.4,2.576a1.457,1.457,0,0,0,1.777-1.125h0a1.457,1.457,0,0,0-1.067-1.7l-10.358-2.63Z" transform="translate(-333.675 -385.947)" fill="#f2b1b5"/>
      </g>
      <g id="グループ_521" data-name="グループ 521" transform="translate(49.466 104.234)">
        <path id="パス_3902" data-name="パス 3902" d="M333.181,389.6l6.7,8.361a1.455,1.455,0,0,0,2.092.184h0a1.456,1.456,0,0,0,.188-2l-6.63-8.381Z" transform="translate(-333.181 -387.767)" fill="#f2b1b5"/>
      </g>
      <g id="グループ_522" data-name="グループ 522" transform="translate(52.821 103.781)">
        <path id="パス_3903" data-name="パス 3903" d="M334.055,389.484l6.7,8.361a1.459,1.459,0,0,0,2.1.184h0a1.455,1.455,0,0,0,.184-2l-6.626-8.385Z" transform="translate(-334.055 -387.649)" fill="#f2b1b5"/>
      </g>
      <g id="グループ_523" data-name="グループ 523" transform="translate(55.8 102.925)">
        <path id="パス_3904" data-name="パス 3904" d="M334.831,389.257l6.7,8.361a1.452,1.452,0,0,0,2.092.188h0a1.452,1.452,0,0,0,.184-2l-6.626-8.381Z" transform="translate(-334.831 -387.426)" fill="#f2b1b5"/>
      </g>
      <g id="グループ_524" data-name="グループ 524" transform="translate(55.812 100.468)">
        <path id="パス_3905" data-name="パス 3905" d="M334.834,388.97l7.954,7.175a1.451,1.451,0,0,0,2.1-.154h0a1.45,1.45,0,0,0-.142-2l-7.889-7.206Z" transform="translate(-334.834 -386.786)" fill="#f2b1b5"/>
      </g>
    </g>
  </g>
</svg>
